<svg width="1840" height="1832" viewBox="0 0 1840 1832" fill="none" xmlns="http://www.w3.org/2000/svg">
<rect width="1840" height="1754" rx="100" fill="white"/>
<path d="M429.133 778L147 534.108L226.026 177.608L586.867 65L869 308.889L789.977 665.389L429.133 778ZM292.697 488.771L460.926 633.976L676.075 566.708L723.303 354.229L555.074 208.724L339.925 276.292L292.697 488.771Z" fill="#3A33D1"/>
<path d="M659.923 674H356.077L204 422L356.077 170H659.923L812 422L659.923 674ZM409.551 585.268H606.449L705.053 422L606.449 258.732H409.551L311.256 422L409.551 585.268Z" fill="#6464E2"/>
<path d="M1433.24 224H1461.76C1465.53 224 1469.16 225.58 1471.83 228.393C1474.5 231.206 1476 235.022 1476 239C1476 242.978 1474.5 246.794 1471.83 249.607C1469.16 252.42 1465.53 254 1461.76 254H1433.24C1429.47 254 1425.84 252.42 1423.17 249.607C1420.5 246.794 1419 242.978 1419 239C1419 235.022 1420.5 231.206 1423.17 228.393C1425.84 225.58 1429.47 224 1433.24 224Z" fill="#56B3B4"/>
<path d="M1011.99 711H1152.01C1155.72 711 1159.28 712.58 1161.9 715.393C1164.53 718.206 1166 722.022 1166 726C1166 727.97 1165.64 729.92 1164.93 731.74C1164.23 733.56 1163.2 735.214 1161.9 736.607C1160.6 737.999 1159.06 739.104 1157.36 739.858C1155.67 740.612 1153.85 741 1152.01 741H1011.99C1008.29 741 1004.73 739.423 1002.11 736.616C999.484 733.809 998.007 730 998 726.026C997.997 724.054 998.356 722.101 999.058 720.278C999.76 718.455 1000.79 716.798 1002.09 715.403C1003.39 714.007 1004.93 712.9 1006.63 712.144C1008.33 711.389 1010.15 711 1011.99 711Z" fill="#EA5E5E"/>
<path d="M1349.12 467H1433.88C1437.63 467 1441.22 468.633 1443.87 471.54C1446.51 474.447 1448 478.389 1448 482.5C1448 486.611 1446.51 490.553 1443.87 493.46C1441.22 496.367 1437.63 498 1433.88 498H1349.12C1345.37 498 1341.78 496.367 1339.13 493.46C1336.49 490.553 1335 486.611 1335 482.5C1335 478.389 1336.49 474.447 1339.13 471.54C1341.78 468.633 1345.37 467 1349.12 467Z" fill="#BF85BF"/>
<path d="M1180.99 467H1293.01C1296.72 467 1300.28 468.633 1302.9 471.54C1305.53 474.447 1307 478.389 1307 482.5C1307 486.611 1305.53 490.553 1302.9 493.46C1300.28 496.367 1296.72 498 1293.01 498H1180.99C1177.28 498 1173.72 496.367 1171.1 493.46C1168.47 490.553 1167 486.611 1167 482.5C1167 478.389 1168.47 474.447 1171.1 471.54C1173.72 468.633 1177.28 467 1180.99 467Z" fill="#EA5E5E"/>
<path d="M1011.99 467H1124.01C1127.72 467 1131.28 468.633 1133.9 471.54C1136.53 474.447 1138 478.389 1138 482.5C1138 486.611 1136.53 490.553 1133.9 493.46C1131.28 496.367 1127.72 498 1124.01 498H1011.99C1008.28 498 1004.73 496.371 1002.11 493.47C999.483 490.569 998.007 486.633 998 482.527C997.997 480.489 998.356 478.471 999.058 476.587C999.76 474.704 1000.79 472.992 1002.09 471.549C1003.39 470.107 1004.93 468.963 1006.63 468.182C1008.33 467.402 1010.15 467 1011.99 467Z" fill="#56B3B4"/>
<path d="M1011.99 589H1152.01C1155.72 589 1159.28 590.58 1161.9 593.393C1164.53 596.206 1166 600.022 1166 604C1166 607.978 1164.53 611.794 1161.9 614.607C1159.28 617.42 1155.72 619 1152.01 619H1011.99C1008.28 619 1004.72 617.42 1002.1 614.607C999.474 611.794 998 607.978 998 604C998 600.022 999.474 596.206 1002.1 593.393C1004.72 590.58 1008.28 589 1011.99 589Z" fill="#BF85BF"/>
<path d="M1011.99 346H1152.01C1155.72 346 1159.28 347.58 1161.9 350.393C1164.53 353.206 1166 357.022 1166 361C1166 364.978 1164.53 368.794 1161.9 371.607C1159.28 374.42 1155.72 376 1152.01 376H1011.99C1008.28 376 1004.72 374.42 1002.1 371.607C999.474 368.794 998 364.978 998 361C998 357.022 999.474 353.206 1002.1 350.393C1004.72 347.58 1008.28 346 1011.99 346Z" fill="#BF85BF"/>
<path d="M1152.04 163H1432.96C1436.69 163 1440.26 164.633 1442.89 167.54C1445.52 170.447 1447 174.389 1447 178.5C1447 182.611 1445.52 186.553 1442.89 189.46C1440.26 192.367 1436.69 194 1432.96 194H1152.04C1148.31 194 1144.74 192.367 1142.11 189.46C1139.48 186.553 1138 182.611 1138 178.5C1138 174.389 1139.48 170.447 1142.11 167.54C1144.74 164.633 1148.31 163 1152.04 163Z" fill="#F7BA3E"/>
<path d="M1011.99 163H1096.01C1099.72 163 1103.28 164.632 1105.9 167.536C1108.53 170.44 1110 174.379 1110 178.486C1110 180.522 1109.64 182.539 1108.94 184.421C1108.24 186.303 1107.21 188.014 1105.91 189.455C1104.61 190.895 1103.07 192.039 1101.37 192.819C1099.67 193.599 1097.85 194 1096.01 194H1011.99C1010.15 194 1008.33 193.599 1006.63 192.819C1004.93 192.039 1003.39 190.895 1002.09 189.455C1000.79 188.014 999.76 186.303 999.058 184.421C998.356 182.539 997.997 180.522 998 178.486C998 174.379 999.474 170.44 1002.1 167.536C1004.72 164.632 1008.28 163 1011.99 163Z" fill="#EA5E5E"/>
<path d="M1123.99 650H1152.01C1155.72 650 1159.28 651.58 1161.9 654.393C1164.53 657.206 1166 661.022 1166 665C1166 668.978 1164.53 672.794 1161.9 675.607C1159.28 678.42 1155.72 680 1152.01 680H1123.99C1120.28 680 1116.72 678.42 1114.1 675.607C1111.47 672.794 1110 668.978 1110 665C1110 661.022 1111.47 657.206 1114.1 654.393C1116.72 651.58 1120.28 650 1123.99 650Z" fill="#F7BA3E"/>
<path d="M1123.99 285H1152.01C1155.72 285 1159.28 286.58 1161.9 289.393C1164.53 292.206 1166 296.022 1166 300C1166 303.978 1164.53 307.794 1161.9 310.607C1159.28 313.42 1155.72 315 1152.01 315H1123.99C1120.28 315 1116.72 313.42 1114.1 310.607C1111.47 307.794 1110 303.978 1110 300C1110 296.022 1111.47 292.206 1114.1 289.393C1116.72 286.58 1120.28 285 1123.99 285Z" fill="#56B3B4"/>
<path d="M1011.99 650H1068.01C1071.72 650 1075.28 651.58 1077.9 654.393C1080.53 657.206 1082 661.022 1082 665C1082 668.978 1080.53 672.794 1077.9 675.607C1075.28 678.42 1071.72 680 1068.01 680H1011.99C1008.29 680 1004.73 678.423 1002.11 675.616C999.484 672.809 998.007 669 998 665.026C997.997 663.054 998.356 661.101 999.058 659.278C999.76 657.455 1000.79 655.798 1002.09 654.403C1003.39 653.007 1004.93 651.9 1006.63 651.144C1008.33 650.389 1010.15 650 1011.99 650Z" fill="#56B3B4"/>
<path d="M1011.99 285H1068.01C1071.72 285 1075.28 286.579 1077.9 289.39C1080.53 292.2 1082 296.012 1082 299.987C1082 301.957 1081.64 303.909 1080.94 305.73C1080.24 307.551 1079.21 309.207 1077.91 310.601C1076.61 311.996 1075.07 313.102 1073.37 313.857C1071.67 314.611 1069.85 315 1068.01 315H1011.99C1008.28 315 1004.72 313.421 1002.1 310.61C999.474 307.8 998 303.988 998 300.013C997.997 298.043 998.356 296.091 999.058 294.27C999.76 292.448 1000.79 290.793 1002.09 289.399C1003.39 288.004 1004.93 286.898 1006.63 286.143C1008.33 285.389 1010.15 285 1011.99 285Z" fill="#F7BA3E"/>
<path opacity="0.5" d="M1376.99 650H1405.01C1408.72 650 1412.28 651.58 1414.9 654.393C1417.53 657.206 1419 661.022 1419 665C1419 668.978 1417.53 672.794 1414.9 675.607C1412.28 678.42 1408.72 680 1405.01 680H1376.99C1373.28 680 1369.72 678.42 1367.1 675.607C1364.47 672.794 1363 668.978 1363 665C1363 661.022 1364.47 657.206 1367.1 654.393C1369.72 651.58 1373.28 650 1376.99 650Z" fill="#D0D4D8"/>
<path opacity="0.5" d="M1208.99 650H1321.01C1324.72 650 1328.28 651.58 1330.9 654.393C1333.53 657.206 1335 661.022 1335 665C1335 668.978 1333.53 672.794 1330.9 675.607C1328.28 678.42 1324.72 680 1321.01 680H1208.99C1205.29 680 1201.73 678.423 1199.11 675.616C1196.48 672.809 1195.01 669 1195 665.026C1195 663.054 1195.36 661.101 1196.06 659.278C1196.76 657.455 1197.79 655.798 1199.09 654.403C1200.39 653.007 1201.93 651.9 1203.63 651.144C1205.33 650.389 1207.15 650 1208.99 650Z" fill="#D0D4D8"/>
<path opacity="0.5" d="M1461.99 650H1574.01C1577.72 650 1581.28 651.58 1583.9 654.393C1586.53 657.206 1588 661.022 1588 665C1588 668.978 1586.53 672.794 1583.9 675.607C1581.28 678.42 1577.72 680 1574.01 680H1461.99C1458.28 680 1454.72 678.42 1452.1 675.607C1449.47 672.794 1448 668.978 1448 665C1448 661.022 1449.47 657.206 1452.1 654.393C1454.72 651.58 1458.28 650 1461.99 650Z" fill="#D0D4D8"/>
<path d="M1237.05 407H1461.95C1465.68 407 1469.25 408.58 1471.89 411.393C1474.52 414.206 1476 418.022 1476 422C1476 425.978 1474.52 429.794 1471.89 432.607C1469.25 435.42 1465.68 437 1461.95 437H1237.05C1233.32 437 1229.75 435.42 1227.11 432.607C1224.48 429.794 1223 425.978 1223 422C1223 418.022 1224.48 414.206 1227.11 411.393C1229.75 408.58 1233.32 407 1237.05 407Z" fill="#56B3B4"/>
<path d="M1096.12 407H1180.88C1184.63 407 1188.22 408.58 1190.87 411.393C1193.51 414.206 1195 418.022 1195 422C1195 425.978 1193.51 429.794 1190.87 432.607C1188.22 435.42 1184.63 437 1180.88 437H1096.12C1092.37 437 1088.78 435.42 1086.13 432.607C1083.49 429.794 1082 425.978 1082 422C1082 418.022 1083.49 414.206 1086.13 411.393C1088.78 408.58 1092.37 407 1096.12 407Z" fill="#F7BA3E"/>
<path d="M1011.99 407H1039.99C1041.83 406.997 1043.65 407.382 1045.35 408.134C1047.05 408.887 1048.59 409.991 1049.89 411.384C1051.2 412.777 1052.23 414.432 1052.93 416.254C1053.64 418.075 1054 420.028 1054 422C1054 425.978 1052.53 429.794 1049.9 432.607C1047.28 435.42 1043.72 437 1040.01 437H1011.99C1008.28 437 1004.72 435.42 1002.1 432.607C999.474 429.794 998 425.978 998 422C998 418.022 999.474 414.206 1002.1 411.393C1004.72 408.58 1008.28 407 1011.99 407Z" fill="#EA5E5E"/>
<path d="M1264.99 224H1376.99C1378.83 223.997 1380.65 224.383 1382.35 225.136C1384.05 225.889 1385.6 226.995 1386.9 228.39C1388.2 229.784 1389.24 231.441 1389.94 233.264C1390.64 235.087 1391 237.041 1391 239.013C1391 242.988 1389.53 246.8 1386.9 249.61C1384.28 252.421 1380.72 254 1377.01 254H1264.99C1261.28 254 1257.72 252.421 1255.1 249.61C1252.47 246.8 1251 242.988 1251 239.013C1251 237.043 1251.36 235.091 1252.06 233.27C1252.76 231.449 1253.79 229.793 1255.09 228.399C1256.39 227.004 1257.93 225.898 1259.63 225.143C1261.33 224.389 1263.15 224 1264.99 224Z" fill="#BF85BF"/>
<path d="M1012.05 224H1208.95C1212.67 224 1216.25 225.58 1218.88 228.393C1221.52 231.206 1223 235.022 1223 239C1223 242.978 1221.52 246.794 1218.88 249.607C1216.25 252.42 1212.67 254 1208.95 254H1012.05C1008.33 254 1004.76 252.423 1002.12 249.616C999.49 246.809 998.007 243 998 239.026C997.997 237.054 998.358 235.101 999.063 233.278C999.767 231.455 1000.8 229.798 1002.11 228.403C1003.41 227.007 1004.96 225.9 1006.67 225.144C1008.38 224.389 1010.21 224 1012.05 224Z" fill="#56B3B4"/>
<path d="M1096.04 528H1348.96C1350.8 528 1352.63 528.401 1354.33 529.18C1356.04 529.959 1357.58 531.101 1358.89 532.54C1360.19 533.979 1361.23 535.688 1361.93 537.568C1362.64 539.449 1363 541.464 1363 543.5C1363 547.611 1361.52 551.553 1358.89 554.46C1356.25 557.367 1352.68 559 1348.96 559H1096.04C1092.32 559 1088.75 557.367 1086.11 554.46C1083.48 551.553 1082 547.611 1082 543.5C1082 541.464 1082.36 539.449 1083.07 537.568C1083.77 535.688 1084.81 533.979 1086.11 532.54C1087.42 531.101 1088.96 529.959 1090.67 529.18C1092.37 528.401 1094.2 528 1096.04 528Z" fill="#F7BA3E"/>
<path d="M1011.99 528H1040.01C1041.84 528 1043.66 528.401 1045.36 529.18C1047.06 529.959 1048.6 531.101 1049.9 532.54C1051.2 533.979 1052.23 535.688 1052.93 537.568C1053.64 539.449 1054 541.464 1054 543.5C1054 547.611 1052.53 551.553 1049.9 554.46C1047.28 557.367 1043.72 559 1040.01 559H1011.99C1008.28 559 1004.72 557.367 1002.1 554.46C999.474 551.553 998 547.611 998 543.5C998 541.464 998.362 539.449 999.065 537.568C999.768 535.688 1000.8 533.979 1002.1 532.54C1003.4 531.101 1004.94 529.959 1006.64 529.18C1008.34 528.401 1010.16 528 1011.99 528Z" fill="#BF85BF"/>
<path d="M1349.08 285H1489.92C1493.66 285 1497.24 286.579 1499.88 289.39C1502.52 292.2 1504 296.012 1504 299.987C1504 301.957 1503.64 303.909 1502.94 305.73C1502.23 307.551 1501.19 309.207 1499.89 310.601C1498.58 311.996 1497.03 313.102 1495.32 313.857C1493.61 314.611 1491.78 315 1489.92 315H1349.08C1345.34 315 1341.76 313.421 1339.12 310.61C1336.48 307.8 1335 303.988 1335 300.013C1335 298.043 1335.36 296.091 1336.06 294.27C1336.77 292.448 1337.81 290.793 1339.11 289.399C1340.42 288.004 1341.97 286.898 1343.68 286.143C1345.39 285.389 1347.22 285 1349.08 285Z" fill="#EA5E5E"/>
<path d="M1349.08 346H1489.92C1493.66 346 1497.24 347.58 1499.88 350.393C1502.52 353.206 1504 357.022 1504 361C1504 364.978 1502.52 368.794 1499.88 371.607C1497.24 374.42 1493.66 376 1489.92 376H1349.08C1345.34 376 1341.76 374.42 1339.12 371.607C1336.48 368.794 1335 364.978 1335 361C1335 357.022 1336.48 353.206 1339.12 350.393C1341.76 347.58 1345.34 346 1349.08 346Z" fill="#F7BA3E"/>
<path d="M1010.95 102H1322.05C1325.48 102 1328.78 104.107 1331.21 107.858C1333.64 111.609 1335 116.696 1335 122C1335 127.304 1333.64 132.391 1331.21 136.142C1328.78 139.893 1325.48 142 1322.05 142H1010.95C1007.52 142 1004.22 139.893 1001.79 136.142C999.365 132.391 998 127.304 998 122C998 116.696 999.365 111.609 1001.79 107.858C1004.22 104.107 1007.52 102 1010.95 102Z" fill="#56B3B4"/>
<path opacity="0.5" d="M1405.33 102.375H1573.94C1575.78 102.372 1577.61 102.762 1579.32 103.524C1581.02 104.286 1582.57 105.405 1583.88 106.816C1585.19 108.227 1586.22 109.904 1586.93 111.749C1587.64 113.594 1588 115.572 1588 117.57C1588 121.599 1586.52 125.464 1583.89 128.314C1581.25 131.163 1577.68 132.764 1573.96 132.764H1405.33C1401.61 132.764 1398.04 131.163 1395.4 128.314C1392.77 125.464 1391.29 121.599 1391.29 117.57C1391.29 113.54 1392.77 109.675 1395.4 106.825C1398.04 103.976 1401.61 102.375 1405.33 102.375Z" fill="#D0D4D8"/>
<path opacity="0.5" d="M1405.33 528.143H1461.54C1463.38 528.143 1465.21 528.536 1466.91 529.299C1468.62 530.063 1470.17 531.182 1471.47 532.593C1472.77 534.004 1473.81 535.679 1474.51 537.522C1475.22 539.366 1475.58 541.342 1475.58 543.337C1475.58 547.367 1474.1 551.232 1471.47 554.081C1468.84 556.931 1465.26 558.532 1461.54 558.532H1405.33C1403.49 558.532 1401.66 558.139 1399.96 557.375C1398.26 556.612 1396.71 555.492 1395.4 554.081C1394.1 552.67 1393.07 550.995 1392.36 549.152C1391.65 547.308 1391.29 545.333 1391.29 543.337C1391.29 541.342 1391.65 539.366 1392.36 537.522C1393.07 535.679 1394.1 534.004 1395.4 532.593C1396.71 531.182 1398.26 530.063 1399.96 529.299C1401.66 528.536 1403.49 528.143 1405.33 528.143Z" fill="#D0D4D8"/>
<path opacity="0.5" d="M1517.75 528.143H1573.96C1575.8 528.143 1577.63 528.536 1579.33 529.299C1581.04 530.063 1582.58 531.182 1583.89 532.593C1585.19 534.004 1586.23 535.679 1586.93 537.522C1587.64 539.366 1588 541.342 1588 543.337C1588 545.333 1587.64 547.308 1586.93 549.152C1586.23 550.995 1585.19 552.67 1583.89 554.081C1582.58 555.492 1581.04 556.612 1579.33 557.375C1577.63 558.139 1575.8 558.532 1573.96 558.532H1517.75C1514.03 558.532 1510.46 556.931 1507.82 554.081C1505.19 551.232 1503.71 547.367 1503.71 543.337C1503.71 541.342 1504.07 539.366 1504.78 537.522C1505.48 535.679 1506.52 534.004 1507.82 532.593C1509.13 531.182 1510.67 530.063 1512.38 529.299C1514.08 528.536 1515.91 528.143 1517.75 528.143Z" fill="#D0D4D8"/>
<path opacity="0.5" d="M1489.65 467.311H1573.96C1577.68 467.311 1581.25 468.912 1583.89 471.761C1586.52 474.611 1588 478.476 1588 482.506C1588 486.535 1586.52 490.4 1583.89 493.25C1581.25 496.099 1577.68 497.7 1573.96 497.7H1489.65C1485.92 497.7 1482.35 496.099 1479.72 493.25C1477.08 490.4 1475.61 486.535 1475.61 482.506C1475.61 478.476 1477.08 474.611 1479.72 471.761C1482.35 468.912 1485.92 467.311 1489.65 467.311Z" fill="#D0D4D8"/>
<path opacity="0.5" d="M1489.65 163.207H1573.96C1577.68 163.207 1581.25 164.807 1583.89 167.657C1586.52 170.506 1588 174.371 1588 178.401C1588 182.431 1586.52 186.296 1583.89 189.145C1581.25 191.995 1577.68 193.596 1573.96 193.596H1489.65C1485.92 193.596 1482.35 191.995 1479.72 189.145C1477.08 186.296 1475.61 182.431 1475.61 178.401C1475.61 174.371 1477.08 170.506 1479.72 167.657C1482.35 164.807 1485.92 163.207 1489.65 163.207Z" fill="#D0D4D8"/>
<path opacity="0.5" d="M1517.75 406.506H1573.96C1575.8 406.506 1577.63 406.899 1579.33 407.663C1581.04 408.426 1582.58 409.546 1583.89 410.957C1585.19 412.368 1586.23 414.043 1586.93 415.886C1587.64 417.73 1588 419.705 1588 421.701C1588 423.696 1587.64 425.672 1586.93 427.515C1586.23 429.359 1585.19 431.034 1583.89 432.445C1582.58 433.856 1581.04 434.975 1579.33 435.739C1577.63 436.502 1575.8 436.895 1573.96 436.895H1517.75C1515.9 436.899 1514.08 436.508 1512.37 435.746C1510.66 434.984 1509.11 433.866 1507.81 432.454C1506.5 431.043 1505.46 429.367 1504.76 427.522C1504.05 425.676 1503.69 423.698 1503.69 421.701C1503.69 419.703 1504.05 417.725 1504.76 415.88C1505.46 414.035 1506.5 412.358 1507.81 410.947C1509.11 409.536 1510.66 408.417 1512.37 407.655C1514.08 406.893 1515.9 406.503 1517.75 406.506Z" fill="#D0D4D8"/>
<path opacity="0.5" d="M1517.75 224.011H1573.96C1575.81 224.011 1577.63 224.405 1579.34 225.171C1581.04 225.936 1582.59 227.057 1583.9 228.471C1585.2 229.885 1586.23 231.563 1586.94 233.41C1587.64 235.256 1588 237.235 1588 239.233C1588 241.228 1587.64 243.204 1586.93 245.047C1586.23 246.891 1585.19 248.566 1583.89 249.977C1582.58 251.388 1581.04 252.507 1579.33 253.271C1577.63 254.034 1575.8 254.427 1573.96 254.427H1517.75C1514.03 254.427 1510.46 252.826 1507.82 249.977C1505.19 247.127 1503.71 243.263 1503.71 239.233C1503.71 237.235 1504.07 235.256 1504.77 233.41C1505.48 231.563 1506.51 229.885 1507.81 228.471C1509.12 227.057 1510.67 225.936 1512.37 225.171C1514.08 224.405 1515.9 224.011 1517.75 224.011Z" fill="#D0D4D8"/>
<path opacity="0.5" d="M1545.85 284.843H1573.96C1575.8 284.843 1577.63 285.236 1579.33 286C1581.04 286.763 1582.58 287.882 1583.89 289.293C1585.19 290.704 1586.23 292.379 1586.93 294.223C1587.64 296.066 1588 298.042 1588 300.038C1588 302.033 1587.64 304.009 1586.93 305.852C1586.23 307.696 1585.19 309.371 1583.89 310.782C1582.58 312.193 1581.04 313.312 1579.33 314.076C1577.63 314.839 1575.8 315.232 1573.96 315.232H1545.85C1542.13 315.232 1538.56 313.631 1535.93 310.782C1533.29 307.932 1531.81 304.067 1531.81 300.038C1531.81 296.008 1533.29 292.143 1535.93 289.293C1538.56 286.444 1542.13 284.843 1545.85 284.843Z" fill="#D0D4D8"/>
<path opacity="0.5" d="M1545.85 345.675H1573.96C1575.8 345.675 1577.63 346.068 1579.33 346.831C1581.04 347.595 1582.58 348.714 1583.89 350.125C1585.19 351.536 1586.23 353.211 1586.93 355.055C1587.64 356.898 1588 358.874 1588 360.869C1588 362.865 1587.64 364.84 1586.93 366.684C1586.23 368.527 1585.19 370.202 1583.89 371.613C1582.58 373.024 1581.04 374.144 1579.33 374.907C1577.63 375.671 1575.8 376.064 1573.96 376.064H1545.85C1542.13 376.064 1538.56 374.463 1535.93 371.613C1533.29 368.764 1531.81 364.899 1531.81 360.869C1531.81 356.839 1533.29 352.975 1535.93 350.125C1538.56 347.275 1542.13 345.675 1545.85 345.675Z" fill="#D0D4D8"/>
<path opacity="0.5" d="M1321.04 588.974H1573.96C1575.8 588.974 1577.63 589.367 1579.33 590.131C1581.04 590.894 1582.58 592.014 1583.89 593.425C1585.19 594.836 1586.23 596.511 1586.93 598.354C1587.64 600.198 1588 602.173 1588 604.169C1588 606.164 1587.64 608.14 1586.93 609.984C1586.23 611.827 1585.19 613.502 1583.89 614.913C1582.58 616.324 1581.04 617.443 1579.33 618.207C1577.63 618.97 1575.8 619.363 1573.96 619.363H1321.04C1317.32 619.363 1313.75 617.763 1311.11 614.913C1308.48 612.063 1307 608.199 1307 604.169C1307 600.139 1308.48 596.274 1311.11 593.425C1313.75 590.575 1317.32 588.974 1321.04 588.974Z" fill="#D0D4D8"/>
<path opacity="0.5" d="M1208.62 588.974H1264.83C1268.56 588.974 1272.13 590.575 1274.76 593.425C1277.39 596.274 1278.87 600.139 1278.87 604.169C1278.87 608.199 1277.39 612.063 1274.76 614.913C1272.13 617.763 1268.56 619.363 1264.83 619.363H1208.62C1204.9 619.363 1201.33 617.763 1198.7 614.913C1196.06 612.063 1194.58 608.199 1194.58 604.169C1194.58 600.139 1196.06 596.274 1198.7 593.425C1201.33 590.575 1204.9 588.974 1208.62 588.974Z" fill="#D0D4D8"/>
<path opacity="0.5" d="M1433.44 710.611H1573.93C1577.66 710.611 1581.23 712.212 1583.86 715.061C1586.5 717.911 1587.98 721.775 1587.98 725.805C1587.98 727.801 1587.61 729.777 1586.91 731.62C1586.2 733.464 1585.17 735.139 1583.86 736.549C1582.56 737.96 1581.01 739.08 1579.31 739.843C1577.6 740.607 1575.78 741 1573.93 741H1433.44C1431.59 741 1429.77 740.607 1428.06 739.843C1426.36 739.08 1424.81 737.96 1423.51 736.549C1422.2 735.139 1421.17 733.464 1420.46 731.62C1419.76 729.777 1419.4 727.801 1419.4 725.805C1419.4 721.775 1420.88 717.911 1423.51 715.061C1426.14 712.212 1429.71 710.611 1433.44 710.611Z" fill="#D0D4D8"/>
<path opacity="0.5" d="M1208.62 710.611H1377.23C1380.95 710.611 1384.52 712.212 1387.15 715.061C1389.79 717.911 1391.27 721.775 1391.27 725.805C1391.27 727.801 1390.9 729.777 1390.2 731.62C1389.49 733.464 1388.46 735.139 1387.15 736.549C1385.85 737.96 1384.3 739.08 1382.6 739.843C1380.9 740.607 1379.07 741 1377.23 741H1208.62C1204.9 741 1201.34 739.403 1198.7 736.559C1196.07 733.715 1194.59 729.857 1194.58 725.832C1194.58 723.834 1194.94 721.856 1195.64 720.009C1196.35 718.162 1197.38 716.484 1198.69 715.07C1199.99 713.657 1201.54 712.535 1203.24 711.77C1204.95 711.005 1206.78 710.611 1208.62 710.611Z" fill="#D0D4D8"/>
<path opacity="0.5" d="M1208.62 284.843H1292.94C1296.66 284.843 1300.23 286.444 1302.86 289.293C1305.5 292.143 1306.98 296.008 1306.98 300.038C1306.98 302.035 1306.62 304.014 1305.92 305.86C1305.21 307.707 1304.18 309.385 1302.87 310.799C1301.57 312.213 1300.02 313.334 1298.32 314.1C1296.61 314.865 1294.78 315.259 1292.94 315.259H1208.62C1204.9 315.259 1201.33 313.658 1198.7 310.808C1196.06 307.959 1194.58 304.094 1194.58 300.064C1194.58 298.067 1194.94 296.088 1195.64 294.241C1196.35 292.395 1197.38 290.717 1198.69 289.303C1199.99 287.889 1201.54 286.767 1203.24 286.002C1204.95 285.237 1206.78 284.843 1208.62 284.843Z" fill="#D0D4D8"/>
<path opacity="0.5" d="M1208.62 345.675H1292.94C1296.66 345.675 1300.23 347.275 1302.86 350.125C1305.5 352.975 1306.98 356.839 1306.98 360.869C1306.98 364.899 1305.5 368.764 1302.86 371.613C1300.23 374.463 1296.66 376.064 1292.94 376.064H1208.62C1204.9 376.064 1201.33 374.463 1198.7 371.613C1196.06 368.764 1194.58 364.899 1194.58 360.869C1194.58 356.839 1196.06 352.975 1198.7 350.125C1201.33 347.275 1204.9 345.675 1208.62 345.675Z" fill="#D0D4D8"/>
<path d="M507.595 889.967C310.633 889.967 150.967 1052.17 150.967 1252.25C150.967 1421.22 264.826 1563.15 418.85 1603.22C418.747 1561.36 418.613 1510 418.533 1494C315.618 1516.74 293.903 1449.66 293.903 1449.66C277.079 1406.22 252.828 1394.67 252.828 1394.67C219.257 1371.34 255.356 1371.82 255.356 1371.82C292.501 1374.47 312.068 1410.55 312.068 1410.55C345.06 1468 398.61 1451.39 419.722 1441.79C423.043 1417.51 432.624 1400.92 443.212 1391.54C361.045 1382.04 274.661 1349.81 274.661 1205.81C274.661 1164.78 289.117 1131.26 312.781 1104.94C308.937 1095.47 296.273 1057.25 316.363 1005.48C316.363 1005.48 347.429 995.386 418.121 1044.01C447.634 1035.68 479.279 1031.5 510.718 1031.36C542.157 1031.5 573.825 1035.68 603.394 1044.01C674.006 995.386 705.025 1005.48 705.025 1005.48C725.162 1057.25 712.498 1095.47 708.655 1104.94C732.374 1131.26 746.727 1164.78 746.727 1205.81C746.727 1350.16 660.185 1381.93 577.804 1391.24C591.07 1402.91 602.894 1425.77 602.894 1460.83C602.894 1488.67 602.768 1552.77 602.649 1601.43C753.439 1559.15 864.224 1418.89 864.224 1252.25C864.224 1052.17 704.557 889.967 507.595 889.967Z" fill="#212121"/>
<path d="M1578.71 1027.04L1451.54 965.816C1436.82 958.728 1419.23 961.719 1407.68 973.268L991.39 1352.83C980.192 1363.04 980.206 1380.67 991.418 1390.86L1025.42 1421.77C1034.59 1430.1 1048.4 1430.72 1058.26 1423.23L1559.58 1042.92C1576.4 1030.16 1600.55 1042.17 1600.55 1063.27V1061.8C1600.55 1046.98 1592.06 1033.47 1578.71 1027.04Z" fill="#0065A9"/>
<path d="M1578.71 1510.96L1451.54 1572.18C1436.82 1579.27 1419.23 1576.28 1407.68 1564.73L991.39 1185.17C980.192 1174.96 980.206 1157.33 991.418 1147.14L1025.42 1116.22C1034.59 1107.89 1048.4 1107.28 1058.26 1114.76L1559.58 1495.07C1576.4 1507.83 1600.55 1495.83 1600.55 1474.73V1476.2C1600.55 1491.02 1592.06 1504.53 1578.71 1510.96Z" fill="#007ACC"/>
<path d="M1451.55 1572.2C1436.82 1579.28 1419.24 1576.29 1407.68 1564.73C1421.91 1578.96 1446.26 1568.88 1446.26 1548.75V989.248C1446.26 969.116 1421.92 959.036 1407.68 973.267C1419.24 961.712 1436.82 958.721 1451.55 965.802L1578.7 1026.95C1592.06 1033.37 1600.55 1046.89 1600.55 1061.71V1476.29C1600.55 1491.11 1592.06 1504.63 1578.7 1511.05L1451.55 1572.2Z" fill="#1F9CF0"/>
</svg>
