<svg width="50" height="50" viewBox="0 0 50 50" fill="none" xmlns="http://www.w3.org/2000/svg">
<path d="M41.7364 43.4884H8.20797C3.83326 43.4884 0.274658 39.9297 0.274658 35.555V14.3884C0.274658 10.0142 3.83381 6.45508 8.20797 6.45508H41.7364C46.1106 6.45508 49.6692 10.0142 49.6692 14.3884V35.555C49.6692 39.9297 46.1106 43.4884 41.7364 43.4884ZM8.20797 8.77497C5.11258 8.77497 2.59455 11.293 2.59455 14.3884V35.555C2.59455 38.6504 5.11258 41.169 8.20797 41.169H41.7364C44.8318 41.169 47.3498 38.6504 47.3498 35.555V14.3884C47.3498 11.293 44.8318 8.77497 41.7364 8.77497H8.20797Z" fill="white"/>
<path d="M6.33581 14.4987C12.2653 20.2768 18.1949 26.0543 24.1244 31.8323C25.2298 32.9091 26.9262 31.2166 25.8192 30.1376C19.8897 24.3601 13.9601 18.582 8.03059 12.8045C6.92525 11.7271 5.22882 13.4203 6.33581 14.4987Z" fill="white"/>
<path d="M25.8192 31.8323C31.7488 26.0548 37.6783 20.2767 43.6079 14.4992C44.7143 13.4207 43.019 11.7271 41.9131 12.8044C35.9835 18.5819 30.054 24.36 24.1245 30.1375C23.018 31.2159 24.7134 32.9096 25.8192 31.8323Z" fill="white"/>
<path d="M43.5427 35.9221C39.5972 32.1802 35.6511 28.4389 31.7056 24.6969C30.5865 23.6361 28.889 25.3275 30.0108 26.3917C33.9563 30.1336 37.9024 33.875 41.8479 37.6169C42.967 38.6778 44.6645 36.9858 43.5427 35.9221Z" fill="white"/>
<path d="M8.20297 37.6163C12.1485 33.8744 16.0946 30.1331 20.0401 26.3912C21.1614 25.3275 19.4649 23.6349 18.3453 24.6964C14.3998 28.4383 10.4537 32.1796 6.50819 35.9215C5.38693 36.9852 7.08336 38.6783 8.20297 37.6163Z" fill="white"/>
</svg>
