<svg width="81" height="61" viewBox="0 0 81 61" fill="none" xmlns="http://www.w3.org/2000/svg">
<path d="M27.2421 54.7781C21.6674 49.7703 18.5478 43.5221 18.5387 35.7703C18.5296 28.0212 21.6247 21.7594 27.2408 16.8064C22.4642 18.3733 18.1669 20.8593 14.244 24.0932C10.3017 27.3434 6.99549 31.2043 4.25155 35.7538C4.80086 36.5976 5.34757 37.4359 5.8917 38.277C6.09251 38.587 6.3257 38.8834 6.46951 39.2223C6.7623 39.9083 6.53687 40.7109 5.97979 41.1541C5.43178 41.5904 4.63373 41.578 4.08572 41.117C3.96005 41.0114 3.83698 40.8906 3.74629 40.7521C2.87958 39.4294 2.01934 38.1013 1.1604 36.7732C0.703077 36.0666 0.767854 35.3793 1.18113 34.6617C2.53237 32.3156 4.03519 30.0847 5.74789 28.0226C13.4304 18.7698 23.0174 13.0595 34.5489 11.5105C50.6641 9.34683 64.3178 14.7882 75.4296 27.3352C77.3159 29.4659 78.8925 31.8518 80.3902 34.3036C81.025 35.3436 80.9745 36.2121 80.3552 37.2356C73.0665 49.2969 62.8344 56.9321 49.5564 59.5828C35.8302 62.3227 23.362 58.9257 12.258 49.9472C11.9509 49.6989 11.64 49.4396 11.3835 49.1364C10.8601 48.5162 10.8497 47.6999 11.3135 47.0647C11.7708 46.4363 12.5352 46.2346 13.2283 46.6091C13.5405 46.7779 13.8165 47.029 14.095 47.2622C17.8573 50.4178 21.9926 52.8586 26.5179 54.5558C26.755 54.645 27.0012 54.7067 27.2421 54.7808V54.7781ZM40.875 15.3548C30.2244 15.3644 21.6441 24.4952 21.6519 35.8115C21.6584 47.0002 30.3048 56.0897 40.9411 56.0883C51.5347 56.087 60.1125 46.9563 60.1021 35.6935C60.0917 24.4554 51.479 15.3452 40.875 15.3548ZM54.5611 16.816C60.1358 21.7854 63.2256 28.0404 63.2088 35.7964C63.1919 43.5537 60.0645 49.7853 54.4406 54.7095C59.1343 53.1879 63.3707 50.7746 67.2418 47.634C71.3318 44.3165 74.7753 40.3706 77.54 35.714C71.8902 26.5916 64.288 20.2845 54.5598 16.816H54.5611Z" fill="black"/>
<path d="M40.374 0.522759C52.9054 0.524115 64.345 4.15808 74.4704 11.8994C76.4104 13.382 78.1606 15.1332 79.9906 16.7691C80.2106 16.9658 80.4187 17.1951 80.5771 17.4474C81.0038 18.1242 80.9057 18.9544 80.3703 19.4956C79.8322 20.0382 79.0246 20.1264 78.3871 19.6801C78.1462 19.5119 77.9368 19.2881 77.7273 19.0765C69.9438 11.2198 60.6169 6.49527 49.9692 4.55824C40.4093 2.81925 31.013 3.59786 21.838 6.92798C15.1776 9.3452 9.2516 13.0429 4.06258 18.0021C3.87015 18.1853 3.68819 18.382 3.48267 18.5488C2.7483 19.1429 1.84507 19.1036 1.26909 18.4647C0.693118 17.8245 0.687881 16.8587 1.33847 16.1777C2.02703 15.4574 2.76139 14.7778 3.50885 14.1213C12.0307 6.63363 21.8904 2.32821 32.9412 0.87544C34.0762 0.726229 35.215 0.586514 36.3565 0.536324C37.6944 0.477996 39.0348 0.522759 40.3753 0.522759H40.374Z" fill="black"/>
<path d="M42.8058 47.7439C42.7823 48.2345 42.7862 48.7832 42.721 49.3208C42.635 50.0353 42.2465 50.5231 41.5817 50.7152C40.9481 50.8991 40.308 50.6683 39.9599 50.0754C39.797 49.799 39.7305 49.441 39.6823 49.1107C39.6184 48.674 39.6158 48.2276 39.5793 47.6776C39.1504 47.6555 38.7736 47.6306 38.3956 47.6168C36.079 47.5325 34.074 46.7046 32.5149 44.8293C31.6011 43.7306 31.0796 42.4577 31.0744 40.9735C31.0705 39.8844 31.5437 39.239 32.408 39.145C33.3218 39.0455 34.0897 39.6108 34.104 40.7012C34.1366 43.0755 37.0633 44.8127 39.475 44.2032C39.7057 43.3616 39.7474 37.9648 39.5128 36.7017C38.9627 36.5593 38.3734 36.3907 37.7777 36.2539C37.0463 36.0853 36.3072 35.9623 35.5784 35.7854C31.2087 34.7226 29.5609 29.2346 32.5462 25.6787C34.0115 23.9346 35.877 23.093 38.0566 22.9728C38.5364 22.9465 39.0135 22.8954 39.5454 22.8511C39.5793 22.3702 39.5936 21.9625 39.6379 21.559C39.7474 20.5584 40.3693 19.9448 41.2323 19.9669C42.0379 19.9876 42.6167 20.5998 42.7262 21.5714C42.7719 21.9749 42.7797 22.3826 42.8071 22.847C43.3116 22.9119 43.7574 22.9672 44.2033 23.028C46.5967 23.35 48.5144 24.4944 49.8102 26.6973C50.3212 27.5652 50.5715 28.5243 50.6041 29.5401C50.6367 30.5614 50.0188 31.374 49.1909 31.4459C48.3918 31.5136 47.7035 30.8765 47.5223 29.8966C47.1103 27.6702 45.997 26.5715 43.8617 26.2854C42.9296 26.1597 42.7614 26.3006 42.7562 27.2902C42.7471 29.2222 42.7471 31.1556 42.7562 33.0877C42.7601 33.9722 42.7745 33.9819 43.5945 34.1795C44.3245 34.355 45.0715 34.46 45.7872 34.6839C46.5302 34.9161 47.2994 35.1524 47.9603 35.5629C51.0147 37.4631 51.1242 41.2015 50.0005 43.4196C48.7269 45.9321 46.6593 47.1925 44.0299 47.5007C43.7066 47.538 43.382 47.5629 43.06 47.603C43 47.6099 42.9452 47.6638 42.8045 47.7425L42.8058 47.7439ZM39.5336 26.3255C38.4673 26.168 37.5391 26.2232 36.6383 26.5826C35.701 26.9557 34.8953 27.5127 34.4247 28.4967C33.7221 29.9616 34.2487 31.7057 35.6801 32.3152C36.8781 32.8251 38.174 32.9647 39.5336 33.2038V26.3269V26.3255ZM42.8918 37.3401C42.6428 38.7954 42.7002 43.4721 42.9609 44.2502C43.3233 44.2295 43.717 44.2585 44.0898 44.177C45.4821 43.8729 46.6841 43.2524 47.2746 41.7612C47.8651 40.2742 47.2537 38.5853 45.868 38.0878C44.9255 37.7492 43.9256 37.5917 42.8905 37.3374L42.8918 37.3401Z" fill="#00895B"/>
</svg>
