<svg width="64" height="64" viewBox="0 0 64 64" fill="none" xmlns="http://www.w3.org/2000/svg">
<g clip-path="url(#clip0_172_270)">
<path d="M62 64H61C60.7167 63.875 60.4317 63.755 60.15 63.6233C56.8917 62.0967 53.6283 60.5817 50.385 59.0283C49.8367 58.765 49.3067 58.395 48.8767 57.9667C43.3533 52.4733 37.85 46.96 32.3417 41.4533C32.1867 41.2983 32.0233 41.15 31.845 40.9817C29.53 43.3 27.27 45.575 24.9917 47.8317C24.6733 48.1467 24.5933 48.4217 24.6933 48.8683C26.12 55.2883 22.2133 61.7667 15.8717 63.5133C15.1333 63.7167 14.375 63.84 13.625 64.0017H11.375C10.765 63.88 10.1567 63.755 9.54667 63.6383C8.54167 63.445 7.83333 62.8867 7.52833 61.9033C7.20667 60.8633 7.535 59.9933 8.29667 59.24C9.82333 57.7333 11.3333 56.21 12.8483 54.6917C13.0183 54.5217 13.1783 54.3433 13.275 54.24C12.085 53.0383 10.9333 51.875 9.75667 50.685C8.11167 52.3367 6.43167 54.0133 4.76333 55.7033C4.03167 56.445 3.18 56.7817 2.16 56.485C1.14667 56.19 0.563333 55.48 0.363333 54.45C0.245 53.8383 0.121667 53.2317 0 52.625C0 51.875 0 51.125 0 50.375C0.0383333 50.215 0.0933333 50.0567 0.115 49.895C1.025 42.6233 8.095 37.67 15.2417 39.315C15.6217 39.4033 15.8533 39.3267 16.1167 39.0617C18.2883 36.8733 20.4717 34.6967 22.65 32.5167C22.765 32.4017 22.87 32.2783 23.1067 32.0217C22.88 31.865 22.6483 31.7483 22.475 31.575C15.415 24.5233 8.355 17.4733 1.315 10.4017C0.8 9.885 0.435 9.22167 0 8.625C0 8.25 0 7.875 0 7.5C0.436667 6.90667 0.816667 6.26 1.32167 5.73333C2.74667 4.24667 4.20167 2.79 5.68833 1.365C6.23 0.845 6.89167 0.451667 7.5 0C7.875 0 8.25 0 8.625 0C9.22167 0.435 9.885 0.8 10.4017 1.31333C17.485 8.36667 24.55 15.44 31.6183 22.5083C31.7883 22.6783 31.965 22.8383 32.16 23.025C34.5367 20.6433 36.865 18.32 39.1683 15.97C39.3217 15.8133 39.3517 15.4367 39.2983 15.1917C37.8817 8.75333 41.725 2.295 48.0717 0.503333C48.8267 0.29 49.6067 0.165 50.375 0C51.125 0 51.875 0 52.625 0C53.235 0.121667 53.8433 0.245 54.4533 0.363333C55.4583 0.556667 56.1667 1.115 56.47 2.1C56.79 3.14 56.4617 4.01167 55.7017 4.76333C54.235 6.21333 52.785 7.67833 51.325 9.13333C51.095 9.36167 50.8433 9.56833 50.6767 9.72C51.9083 10.9683 53.0583 12.135 54.23 13.3217C55.9133 11.635 57.6183 9.925 59.325 8.215C60.0483 7.49 60.91 7.22333 61.895 7.53167C62.8517 7.83 63.415 8.51333 63.6233 9.48667C63.7567 10.115 63.875 10.745 64 11.375V13.625C63.9617 13.7633 63.9067 13.9 63.89 14.04C63.0067 21.36 55.97 26.3133 48.7667 24.675C48.3933 24.59 48.1517 24.6683 47.8883 24.935C45.7033 27.1383 43.5067 29.33 41.3133 31.525C41.2133 31.625 41.1217 31.7333 40.98 31.8867C41.75 32.65 42.5033 33.3933 43.2517 34.14C43.9883 34.875 44.7383 35.5983 45.4467 36.3617C45.915 36.865 45.8667 37.5917 45.4067 38.0533C44.9517 38.5117 44.2333 38.5417 43.7067 38.1133C43.5467 37.9817 43.4033 37.8283 43.2567 37.68C36.4233 30.8467 29.59 24.015 22.7583 17.18C21.2867 15.7083 19.8217 14.23 18.4067 12.81C17.7533 13.4533 17.135 14.0617 16.595 14.5917C29.0617 27.0633 41.5517 39.5567 54.0317 52.0417C54.5767 51.4917 55.175 50.8883 55.84 50.2183C55.26 49.6533 54.66 49.08 54.0717 48.495C52.9783 47.4083 51.8933 46.315 50.8 45.2283C50.4133 44.8433 50.1917 44.355 50.4383 43.8767C50.6183 43.53 51.0167 43.1167 51.3567 43.0783C51.7583 43.0333 52.31 43.2483 52.6117 43.54C54.56 45.42 56.4617 47.3483 58.3667 49.27C58.5667 49.4717 58.735 49.725 58.8567 49.9833C60.575 53.6517 62.2833 57.3267 63.995 60.9983V61.9983C63.6583 62.995 63.0017 63.6717 61.995 63.9983L62 64ZM24.6217 33.8667C24.5233 34.025 24.4317 34.2517 24.2733 34.4117C21.9083 36.79 19.5283 39.1517 17.17 41.535C16.6733 42.0367 16.155 42.1483 15.475 41.98C14.6117 41.765 13.725 41.545 12.8433 41.52C7.42 41.3633 3.00333 45.33 2.52833 50.7433C2.43333 51.835 2.51333 52.9183 2.895 54.1617C3.135 53.865 3.26333 53.6717 3.42333 53.5117C4.92167 52.0067 6.42333 50.5033 7.92833 49.005C9.11833 47.82 10.5433 47.8033 11.7317 48.97C12.8317 50.05 13.92 51.1417 15.0017 52.2383C16.1983 53.455 16.1883 54.8717 14.9783 56.0883C13.465 57.6083 11.945 59.1233 10.43 60.6417C10.28 60.7917 10.1433 60.955 9.905 61.2183C10.72 61.3217 11.3733 61.4567 12.0317 61.4817C18.9517 61.7433 23.9883 55.3133 22.0583 48.6617C21.8233 47.85 21.99 47.29 22.5783 46.7117C24.94 44.39 27.27 42.0367 29.61 39.695C29.765 39.54 29.91 39.375 30.0117 39.2667C28.23 37.4817 26.4967 35.7467 24.62 33.8683L24.6217 33.8667ZM39.3717 30.1517C39.4783 29.9783 39.5683 29.7483 39.7267 29.5883C42.0617 27.24 44.4167 24.9117 46.7383 22.55C47.305 21.975 47.8617 21.835 48.64 22.0667C55.3083 24.0383 61.82 18.9 61.4783 11.945C61.4467 11.3017 61.3017 10.6633 61.1883 9.87C59.405 11.6567 57.7617 13.3083 56.1117 14.955C54.85 16.2133 53.445 16.2067 52.1717 14.9417C51.1233 13.8983 50.0767 12.8533 49.035 11.805C47.7967 10.5583 47.7917 9.14667 49.0217 7.91167C50.535 6.39167 52.055 4.87833 53.57 3.35833C53.7183 3.20833 53.855 3.04667 54.0233 2.86C53.87 2.80167 53.815 2.77333 53.7567 2.76C46.33 1.05667 39.8083 7.93833 41.9217 15.2783C42.17 16.1433 42 16.725 41.3767 17.335C39.0267 19.6383 36.7133 21.98 34.3883 24.3067C34.2333 24.4617 34.0867 24.6267 33.99 24.73C35.7667 26.52 37.495 28.26 39.3717 30.15V30.1517ZM12.9183 18.2617C25.3917 30.7367 37.885 43.23 50.27 55.6167C50.8367 55.075 51.4583 54.4783 51.9967 53.9633C39.5417 41.5067 27.0617 29.0267 14.6083 16.57C14.055 17.1233 13.4533 17.7233 12.9167 18.26L12.9183 18.2617ZM2.63833 7.98833C4.26 9.61667 5.895 11.255 7.46667 12.8333C9.25333 11.0517 11.0883 9.22 12.8833 7.43C11.2833 5.83333 9.65167 4.20833 8.04 2.60167C6.23333 4.40333 4.39333 6.23833 2.63667 7.99L2.63833 7.98833ZM14.8233 9.32167C12.9767 11.1633 11.1417 12.9967 9.365 14.7683C9.88333 15.3183 10.4333 15.9 10.9283 16.4267C12.77 14.5867 14.6033 12.7533 16.4433 10.9133C15.9233 10.4033 15.3617 9.85167 14.8217 9.32167H14.8233ZM57.3083 52.5617C55.7167 54.1617 54.155 55.73 52.575 57.3167C53.2283 57.6217 53.9333 57.9667 54.6567 58.2717C54.7733 58.3217 55.0133 58.2383 55.1167 58.1367C56.1283 57.1483 57.1317 56.15 58.115 55.1317C58.2317 55.01 58.295 54.7167 58.2333 54.565C57.95 53.8767 57.6133 53.21 57.3083 52.5617ZM61.3 61.4C61.3317 61.3617 61.3633 61.3217 61.395 61.2833C60.7817 59.9783 60.1683 58.6733 59.5983 57.4567C58.8717 58.1867 58.1667 58.8933 57.4583 59.605C58.6917 60.1817 59.9967 60.79 61.3 61.4Z" fill="#007349"/>
<path d="M49.2967 40.735C49.2884 41.4183 48.7384 41.9716 48.065 41.9733C47.3734 41.9733 46.8067 41.3816 46.83 40.6766C46.8517 39.99 47.4 39.475 48.0934 39.4883C48.7817 39.5016 49.305 40.0433 49.2967 40.7366V40.735Z" fill="#007349"/>
</g>
<defs>
<clipPath id="clip0_172_270">
<rect width="64" height="64" fill="white"/>
</clipPath>
</defs>
</svg>
