<svg width="64" height="64" viewBox="0 0 64 64" fill="none" xmlns="http://www.w3.org/2000/svg">
<path d="M49.0005 63.9998C37.6658 63.9998 26.3328 63.9998 14.9981 63.9998C14.2014 63.5449 13.9448 63.0799 14.1198 62.4099C14.2798 61.7982 14.7731 61.5032 15.6381 61.4999C16.1164 61.4982 16.5964 61.4999 17.0747 61.4999C17.7947 61.4999 18.513 61.4999 19.2496 61.4999C19.2496 61.2782 19.248 61.1532 19.2496 61.0283C19.278 58.4533 20.8146 56.9367 23.4012 56.93C24.1512 56.9284 24.9028 56.8984 25.6495 56.9417C26.1311 56.97 26.2861 56.7734 26.3828 56.3367C26.7461 54.6934 27.1511 53.0568 27.5378 51.4185C27.5878 51.2068 27.6211 50.9918 27.6744 50.7202C27.3494 50.7202 27.1028 50.7202 26.8561 50.7202C20.7113 50.7202 14.5681 50.7285 8.42326 50.7169C5.19001 50.7102 3.0484 48.5786 3.04673 45.3537C3.0384 34.7956 3.03841 24.2359 3.05507 13.6778C3.05674 13.0428 3.14006 12.3795 3.33173 11.7762C4.02504 9.59959 5.92666 8.33795 8.42493 8.33795C19.4013 8.33629 30.3777 8.33462 41.3524 8.34629C41.7991 8.34629 42.0657 8.21963 42.3124 7.8413C43.4607 6.08135 44.6473 4.34472 45.8089 2.5931C46.6789 1.28147 47.8556 0.428163 49.4072 0.113172C49.4822 0.098172 49.5505 0.0415062 49.6222 0.00317383C50.1638 0.00317383 50.7055 0.00317383 51.2471 0.00317383C51.3405 0.0415062 51.4321 0.0948369 51.5288 0.116503C54.3487 0.731487 56.1654 3.14976 55.877 6.00968C55.8004 6.77466 55.507 7.51798 55.307 8.29296C55.827 8.33962 56.392 8.33129 56.9303 8.44629C59.4119 8.97461 60.9452 10.9996 60.9469 13.7395C60.9519 24.2559 60.9502 34.7739 60.9436 45.2903C60.9436 45.787 60.9135 46.297 60.8036 46.777C60.2436 49.2036 58.2403 50.7135 55.5704 50.7169C49.4055 50.7252 43.2407 50.7202 37.0758 50.7202C36.8342 50.7202 36.5942 50.7202 36.2825 50.7202C36.7692 52.7568 37.2242 54.6984 37.7125 56.6317C37.7458 56.765 38.0392 56.9134 38.2158 56.9184C39.1941 56.95 40.1758 56.8967 41.1507 56.955C42.9907 57.0634 44.3556 58.295 44.6773 60.0983C44.7556 60.5399 44.7473 60.9983 44.7823 61.5032C46.0523 61.5032 47.2972 61.5066 48.5405 61.5016C49.1689 61.4982 49.6389 61.7482 49.8522 62.3532C50.0955 63.0165 49.8122 63.5349 49.0005 63.9998ZM58.4553 37.2922C58.4553 36.9922 58.4553 36.7672 58.4553 36.5422C58.4553 28.9591 58.4553 21.376 58.4536 13.7945C58.4536 13.5862 58.4519 13.3778 58.4303 13.1712C58.2836 11.8112 57.307 10.8862 55.9437 10.8412C55.2354 10.8179 54.5254 10.8646 53.8187 10.8246C53.3321 10.7962 53.0221 10.9679 52.7154 11.3445C49.2805 15.5578 45.8406 19.766 42.3657 23.9475C41.8807 24.5309 41.6574 25.0442 41.924 25.7842C42.0607 26.1642 42.054 26.6058 42.0624 27.0208C42.1407 30.814 39.3175 33.1806 36.6959 33.2806C35.5959 33.3223 34.4926 33.2906 33.3909 33.2623C31.7143 33.2173 30.181 33.529 28.8844 34.7156C28.1594 35.3789 27.1311 35.0206 26.8744 34.0623C26.2628 31.779 25.8845 29.4724 26.0995 27.0891C26.5011 22.6443 29.5327 19.7027 33.9859 19.5177C34.3959 19.501 34.6142 19.3493 34.8276 19.0243C36.5059 16.4894 38.2008 13.9678 39.8891 11.4395C39.9991 11.2745 40.0958 11.0979 40.2558 10.8346C39.9358 10.8346 39.7124 10.8346 39.4908 10.8346C29.1577 10.8346 18.8247 10.8346 8.48993 10.8346C6.51331 10.8346 5.54501 11.8062 5.54501 13.7945C5.54334 21.3776 5.54501 28.9608 5.54501 36.5422C5.54501 36.7672 5.54501 36.9905 5.54501 37.2539C5.79667 37.2689 5.97832 37.2889 6.16165 37.2889C7.13996 37.2939 8.1216 37.2672 9.09824 37.3072C9.87655 37.3372 10.3832 37.8822 10.3682 38.5738C10.3549 39.2755 9.83822 39.7605 9.05158 39.7838C8.46826 39.8005 7.88494 39.7888 7.30162 39.7888C6.72831 39.7888 6.15666 39.7888 5.54501 39.7888C5.54501 41.7371 5.53667 43.5687 5.54666 45.3987C5.55666 47.1619 6.58498 48.2119 8.34326 48.2119C24.1145 48.2186 39.8858 48.2186 55.657 48.2119C57.412 48.2119 58.4386 47.1586 58.4503 45.3953C58.4619 43.7087 58.4536 42.0204 58.4503 40.3338C58.4503 40.1738 58.4186 40.0138 58.3953 39.7888C58.0986 39.7888 57.832 39.7888 57.5653 39.7888C44.9606 39.7888 32.356 39.7888 19.753 39.7871C19.483 39.7871 19.2096 39.7955 18.9413 39.7621C18.3497 39.6888 17.9197 39.2171 17.878 38.6322C17.838 38.0538 18.2063 37.5022 18.7813 37.3705C19.1013 37.2972 19.4413 37.2922 19.773 37.2922C32.3776 37.2889 44.9823 37.2889 57.5853 37.2889C57.8536 37.2922 58.1186 37.2922 58.4553 37.2922ZM44.374 17.5877C44.804 17.0644 45.1856 16.6011 45.5673 16.1361C47.9172 13.2728 50.2638 10.4046 52.6221 7.54631C53.3504 6.663 53.6387 5.68636 53.2888 4.58305C52.9138 3.39808 52.0638 2.6981 50.8505 2.53644C49.6022 2.36811 48.6222 2.89143 47.9239 3.9364C45.5756 7.44631 43.2257 10.9562 40.8774 14.4678C40.8024 14.5811 40.7457 14.7078 40.6724 14.8428C41.909 15.7578 43.109 16.6494 44.374 17.5877ZM28.8844 31.6573C30.656 30.7857 32.471 30.6974 34.3159 30.804C34.8976 30.8374 35.4826 30.8674 36.0625 30.8357C37.8242 30.7374 39.1175 29.7941 39.4241 28.2191C39.5741 27.4508 39.4441 26.6158 39.3591 25.8208C39.3308 25.5575 39.0941 25.2592 38.8691 25.0859C37.6158 24.1225 36.3409 23.1892 35.0642 22.2543C34.9042 22.1376 34.7059 22.0243 34.5159 22.0059C32.0376 21.7643 29.6144 23.3859 28.9011 25.7725C28.3244 27.6991 28.4977 29.6341 28.8844 31.6573ZM42.1957 61.4716C42.3707 59.9383 41.9257 59.43 40.4491 59.43C34.8076 59.43 29.1677 59.4283 23.5262 59.43C22.0646 59.43 21.5896 59.9899 21.8196 61.4716C28.5961 61.4716 35.3742 61.4716 42.1957 61.4716ZM30.2794 50.7402C29.7894 52.8018 29.311 54.8167 28.8194 56.8867C30.9677 56.8867 33.0359 56.8867 35.1826 56.8867C34.6859 54.7984 34.2026 52.7701 33.7176 50.7402C32.5476 50.7402 31.4493 50.7402 30.2794 50.7402ZM42.7874 19.5243C41.5807 18.6294 40.4358 17.781 39.2491 16.9011C38.4325 18.1194 37.6608 19.2727 36.8625 20.4643C37.9325 21.2576 38.9808 22.0359 40.0658 22.8409C40.9774 21.7293 41.859 20.6543 42.7874 19.5243Z" fill="#007349"/>
<path d="M14.1127 39.7825C13.4261 39.7759 12.8827 39.2359 12.8794 38.5542C12.8761 37.8842 13.4327 37.3209 14.1077 37.3109C14.8044 37.3009 15.386 37.8859 15.3693 38.5826C15.3543 39.2625 14.8044 39.7892 14.1127 39.7825Z" fill="#007349"/>
</svg>
