<svg width="64" height="64" viewBox="0 0 64 64" fill="none" xmlns="http://www.w3.org/2000/svg">
<g clip-path="url(#clip0_172_231)">
<path d="M64 63.2515C63.7062 63.7546 63.2656 63.8984 62.6922 63.8984C52.2969 63.8875 41.9015 63.889 31.5062 63.8937C30.9812 63.8937 30.4984 63.8531 30.275 63.2765C30.0609 62.7234 30.3953 62.3734 30.7422 62.0281C32.2719 60.5 33.8015 58.9703 35.3281 57.4406C35.4703 57.2984 35.6015 57.1468 35.8359 56.8953H34.9953C25.8265 56.8953 16.6578 56.8937 7.48904 56.8953C4.56873 56.8953 2.38436 55.6437 0.956232 53.0921C0.396857 52.0937 0.124982 51 0.124982 49.8687C0.112482 36.7062 0.107794 23.5437 0.123419 10.3812C0.128107 6.35152 3.22654 3.0984 7.12029 2.95777C8.10779 2.92183 8.43436 3.22652 8.43748 4.23121C8.44373 6.93433 8.44061 9.63746 8.44061 12.3406C8.44061 12.5843 8.44061 12.8281 8.44061 13.1421C8.75936 13.1421 9.00154 13.1421 9.24529 13.1421C18.4562 13.1421 27.6656 13.139 36.8765 13.1515C37.35 13.1515 37.6844 13.0156 38.0187 12.6781C41.7719 8.90308 45.5375 5.14215 49.3031 1.37808C50.8781 -0.196917 52.4265 -0.192229 54.0109 1.38902C54.0406 1.41871 54.0687 1.4484 54.1 1.47652C58.5875 5.72027 58.5844 6.23746 54.1281 10.4687C53.2687 11.2843 52.4375 12.1281 51.4594 13.0921C51.8265 13.1156 52.0328 13.139 52.239 13.139C54.214 13.1421 56.189 13.139 58.164 13.1421C59.3265 13.1437 59.6015 13.4171 59.6015 14.5734C59.6015 20.4578 59.6015 26.3421 59.6015 32.2281C59.6015 32.475 59.6015 32.7234 59.6015 33.1546C60.0078 32.7531 60.3062 32.4593 60.6031 32.1625C61.1031 31.664 61.6015 31.1625 62.1031 30.6625C62.8672 29.9015 63.3047 29.9062 64.0015 30.6796V63.25L64 63.2515ZM1.98904 45.2125C3.20154 43.9953 4.47967 43.2078 6.02029 42.9375C6.48436 42.8562 6.57498 42.6546 6.57029 42.2343C6.55154 40.5078 6.55467 38.7812 6.56873 37.0562C6.57498 36.3718 6.95623 35.9578 7.50779 35.9687C8.02967 35.9781 8.42342 36.3812 8.42811 37.025C8.44686 39.2078 8.44842 41.3921 8.42811 43.5765C8.42029 44.2703 8.06873 44.5671 7.37811 44.6484C6.86561 44.7093 6.34061 44.7562 5.84842 44.9031C3.42498 45.6312 1.71092 48.1703 2.06561 50.464C2.49998 53.2765 4.55311 55.0156 7.48904 55.0171C17.4078 55.0234 27.3265 55.0234 37.2469 55.0046C37.5344 55.0046 37.8875 54.8484 38.0984 54.6468C39.2406 53.5546 40.339 52.4187 41.4687 51.3125C41.9156 50.8734 42.4922 50.8593 42.8609 51.2281C43.2547 51.6218 43.2344 52.1281 42.8015 52.6187C42.6922 52.7437 42.5687 52.8562 42.4515 52.9734C39.6281 55.7968 36.8047 58.6203 33.9828 61.4453C33.8297 61.5984 33.6875 61.764 33.5047 61.964H62.0828V57.5375C61.5593 57.5375 61.0843 57.5453 60.6093 57.5359C59.889 57.5218 59.5093 57.2125 59.4906 56.6437C59.4718 56.0468 59.8672 55.6906 60.6047 55.6671C61.0953 55.6515 61.589 55.664 62.0812 55.664V52.8531C61.5328 52.8531 61.0344 52.8734 60.5375 52.8484C59.8406 52.814 59.4687 52.4484 59.4906 51.8703C59.5109 51.3171 59.8719 51.0046 60.5531 50.9843C61.0656 50.9687 61.5797 50.9812 62.0859 50.9812V48.1484C61.5437 48.1484 61.0453 48.1593 60.55 48.1453C59.8718 48.125 59.4765 47.7562 59.4906 47.1828C59.5031 46.6359 59.889 46.2953 60.5406 46.2781C61.0531 46.2656 61.5672 46.275 62.0953 46.275V43.4234C61.5031 43.4234 60.9453 43.45 60.3906 43.4171C59.6953 43.375 59.2328 42.7062 59.5812 42.1562C59.7656 41.864 60.2156 41.6546 60.5812 41.5828C61.0703 41.4859 61.5937 41.5593 62.0984 41.5593V33.3546C61.8718 33.5671 61.7078 33.7156 61.5515 33.8718C56.375 39.0484 51.2 44.2265 46.025 49.4031C45.3187 50.1093 44.764 50.2343 44.3234 49.7875C43.8594 49.3171 43.9703 48.8031 44.6906 48.0828C48.8953 43.8765 53.0984 39.6671 57.3125 35.4703C57.6172 35.1671 57.7406 34.864 57.739 34.4343C57.7265 28.2156 57.7297 21.9968 57.7297 15.7781C57.7297 15.5546 57.7297 15.3312 57.7297 15.05C57.4406 15.0375 57.2172 15.0187 56.9953 15.0187C54.7281 15.0171 52.4625 15.0296 50.1953 15.0078C49.7375 15.0031 49.4265 15.1531 49.1093 15.4718C42.9406 21.6562 36.7656 27.8328 30.5781 33.9968C30.2828 34.2921 29.8859 34.5265 29.4922 34.6734C27.9969 35.2375 26.4844 35.7531 24.9781 36.289C24.8437 36.3375 24.7187 36.4093 24.4219 36.55C24.8469 36.55 25.075 36.55 25.3015 36.55C31.0609 36.55 36.8219 36.55 42.5812 36.5515C43.3219 36.5515 43.7531 36.8953 43.7719 37.464C43.7906 38.0359 43.3515 38.4203 42.6343 38.4203C34.1078 38.4234 25.5828 38.4234 17.0562 38.4203C16.3672 38.4203 15.9625 38.0625 15.9578 37.4984C15.9531 36.9328 16.3547 36.5656 17.0406 36.5531C17.8312 36.5375 18.6219 36.5171 19.4109 36.5609C19.875 36.5859 20.0531 36.4062 20.1969 35.989C21.1031 33.3593 22.025 30.7343 22.9719 28.1187C23.114 27.725 23.3672 27.3406 23.6594 27.039C24.8734 25.7828 26.1203 24.5593 27.3562 23.325C28.0562 22.6265 28.5484 22.5171 29.0109 22.9562C29.4969 23.4171 29.3953 23.9312 28.6719 24.6546C27.5609 25.7656 26.4484 26.8765 25.4234 27.9C26.8844 29.3625 28.3015 30.7796 29.6187 32.0968C36.0156 25.7031 42.464 19.2578 48.8594 12.864C47.5094 11.4984 46.1093 10.0812 44.6265 8.57965C44.4937 8.74996 44.3703 8.9484 44.2094 9.10933C40.1984 13.1281 36.1844 17.1421 32.1672 21.1546C31.9781 21.3437 31.775 21.6281 31.5531 21.6531C31.2031 21.6937 30.7265 21.6671 30.5015 21.4562C30.3015 21.2703 30.3047 20.7875 30.3469 20.4515C30.3734 20.2453 30.6297 20.0562 30.8047 19.8812C32.2422 18.4359 33.6859 16.9968 35.125 15.5546C35.2625 15.4171 35.3844 15.2671 35.564 15.0671H8.43748C8.43748 15.364 8.43748 15.6093 8.43748 15.8562C8.43748 21.4296 8.43748 27.0031 8.43436 32.5781C8.43436 32.8468 8.42498 33.1218 8.36092 33.3812C8.24686 33.8453 7.91717 34.075 7.44217 34.0515C6.96717 34.0281 6.66873 33.7625 6.59686 33.2921C6.55623 33.0265 6.56248 32.7531 6.56248 32.4843C6.56092 23.5828 6.56248 14.6812 6.56248 5.77965V4.88277C6.11092 5.01715 5.74529 5.08277 5.41561 5.23121C3.10154 6.27183 1.99373 8.10152 1.99373 10.6093C1.98748 21.9234 1.99061 33.2375 1.99061 44.5515C1.99061 44.714 1.99061 44.8765 1.99061 45.2109L1.98904 45.2125ZM49.1859 4.11558C50.65 5.58121 52.0625 6.99527 53.489 8.42183C54.0406 7.87496 54.6594 7.29527 55.239 6.67652C55.6562 6.23121 55.6625 5.72652 55.2344 5.28277C54.2875 4.29683 53.3172 3.32965 52.3312 2.38121C51.9156 1.98277 51.4109 1.97808 50.9828 2.36871C50.3422 2.95152 49.739 3.57496 49.1859 4.11558ZM46.1172 7.2609C47.5484 8.69527 48.9547 10.1046 50.3453 11.4984C50.8875 10.9656 51.4468 10.4171 51.9515 9.92183C50.5359 8.49996 49.1218 7.07965 47.7078 5.65777C47.1984 6.17027 46.6594 6.71402 46.1172 7.2609ZM24.3515 29.8968C23.2359 32.2718 23.239 32.3015 24.8922 33.889C24.9375 33.9328 24.9734 33.9984 25.0265 34.0171C25.1703 34.064 25.3422 34.1546 25.4656 34.114C26.2531 33.8562 27.0297 33.5671 27.7484 33.3109C26.6094 32.1656 25.4734 31.025 24.3515 29.8968Z" fill="#007349"/>
<path d="M51.1078 57.2547C49.5281 57.2547 47.9469 57.2485 46.3672 57.2578C45.8578 57.261 45.3906 57.1828 45.1828 56.6516C44.9906 56.1594 45.2297 55.7797 45.5781 55.4328C48.861 52.1578 52.1391 48.8781 55.4156 45.5953C55.7625 45.2469 56.1391 45.0094 56.636 45.211C57.136 45.4141 57.2344 45.8563 57.2344 46.3422C57.2328 49.5656 57.2391 52.7891 57.2297 56.0125C57.2281 56.9172 56.8813 57.2485 55.9735 57.2531C54.3516 57.2594 52.7297 57.2547 51.1078 57.2547ZM55.3094 55.3594V48.7016C53.1188 50.8938 50.8485 53.1625 48.6531 55.3594H55.3094Z" fill="#007349"/>
</g>
<defs>
<clipPath id="clip0_172_231">
<rect width="64" height="64" fill="white"/>
</clipPath>
</defs>
</svg>
