<svg width="64" height="64" viewBox="0 0 64 64" fill="none" xmlns="http://www.w3.org/2000/svg">
<path d="M52.7543 64C38.9185 64 25.0845 64 11.2488 64C7.7169 63.175 6.60184 60.5933 6.62185 57.51C6.70018 45.3333 6.65351 33.155 6.65351 20.9783C6.65351 15.8583 6.65518 10.7367 6.65185 5.61667C6.65018 3.75334 7.27688 2.15833 8.83029 1.08666C9.54533 0.593332 10.4354 0.355 11.2471 0C25.0828 0 38.9169 0 52.7526 0C53.1076 0.106667 53.4693 0.196667 53.8176 0.323334C56.0544 1.13667 57.3462 3.115 57.3462 5.73833C57.3478 23.245 57.3478 40.7517 57.3462 58.2583C57.3462 58.425 57.3478 58.5917 57.3395 58.7583C57.2162 61.09 55.8528 62.9767 53.761 63.7C53.431 63.815 53.0909 63.9 52.7543 64ZM54.661 32C54.661 28.855 54.661 25.7083 54.661 22.5633C54.661 16.9183 54.656 11.2733 54.666 5.62833C54.6677 4.87166 54.531 4.18 54.0243 3.59666C53.4193 2.90166 52.6343 2.655 51.7375 2.655C38.5702 2.65833 25.4045 2.65667 12.2371 2.65667C12.1121 2.65667 11.9871 2.655 11.8621 2.66667C10.3804 2.8 9.38366 3.85833 9.34699 5.345C9.33366 5.865 9.34366 6.38667 9.34366 6.90667C9.34366 24.0083 9.34033 41.1117 9.35699 58.2133C9.35699 58.7983 9.44366 59.4433 9.69868 59.955C10.2387 61.0417 11.2554 61.3483 12.4221 61.3483C25.4428 61.34 38.4635 61.325 51.4842 61.3617C53.366 61.3667 54.696 60.2683 54.6827 58.1833C54.6293 49.4567 54.661 40.7283 54.661 32Z" fill="#007349"/>
<path d="M32.0084 24.0002C25.9265 24.0002 19.8445 24.0002 13.7625 24.0002C12.4391 24.0002 12.0007 23.5635 12.0007 22.2452C12.0007 17.6219 11.9991 12.9985 12.0007 8.37519C12.0007 7.14519 12.4724 6.66019 13.6858 6.66019C25.8915 6.65852 38.0971 6.65852 50.3027 6.66019C51.5295 6.66019 52.0028 7.13685 52.0028 8.36019C52.0045 12.9835 52.0045 17.6069 52.0028 22.2302C52.0028 23.5585 51.5678 24.0002 50.2544 24.0002C44.1741 24.0002 38.0921 24.0002 32.0084 24.0002ZM49.3177 9.38852C37.7354 9.38852 26.2265 9.38852 14.6975 9.38852C14.6975 13.3802 14.6975 17.3252 14.6975 21.2852C26.2631 21.2852 37.7854 21.2852 49.3177 21.2852C49.3177 17.2969 49.3177 13.3652 49.3177 9.38852Z" fill="#007349"/>
<path d="M44.004 47.9351C44.004 45.3968 44.0024 42.8568 44.004 40.3184C44.0057 39.1468 44.4924 38.6618 45.6791 38.6584C47.2408 38.6534 48.8009 38.6518 50.3627 38.6584C51.5077 38.6634 52.0028 39.1584 52.0028 40.2901C52.0044 45.4301 52.0044 50.5701 52.0028 55.7118C52.0028 56.8418 51.5044 57.3368 50.3593 57.3418C48.7776 57.3484 47.1959 57.3501 45.6141 57.3418C44.5107 57.3351 44.0074 56.8301 44.0057 55.7401C44.0007 53.1384 44.004 50.5368 44.004 47.9351ZM49.3043 54.6185C49.3043 50.1651 49.3043 45.7801 49.3043 41.3851C48.4142 41.3851 47.5709 41.3851 46.6958 41.3851C46.6958 45.8118 46.6958 50.1951 46.6958 54.6185C47.5742 54.6185 48.4192 54.6185 49.3043 54.6185Z" fill="#007349"/>
<path d="M30.6566 42.6732C30.6566 43.5066 30.6666 44.3382 30.6549 45.1716C30.6416 46.1566 30.1733 46.6432 29.2049 46.6516C27.5181 46.6649 25.8314 46.6649 24.1463 46.6516C23.1846 46.6449 22.6745 46.1499 22.6645 45.1866C22.6462 43.4999 22.6445 41.8149 22.6645 40.1282C22.6762 39.1832 23.2029 38.6716 24.1613 38.6616C25.8264 38.6432 27.4931 38.6449 29.1582 38.6616C30.1549 38.6716 30.6433 39.1766 30.6566 40.1749C30.6666 41.0082 30.6566 41.8399 30.6566 42.6732ZM27.9665 43.9816C27.9665 43.0782 27.9665 42.2399 27.9665 41.3782C27.0931 41.3782 26.2547 41.3782 25.3963 41.3782C25.3963 42.2649 25.3963 43.1166 25.3963 43.9816C26.2714 43.9816 27.0948 43.9816 27.9665 43.9816Z" fill="#007349"/>
<path d="M33.3466 42.6433C33.3466 41.81 33.3366 40.9783 33.3499 40.145C33.3633 39.215 33.845 38.68 34.7517 38.6666C36.4785 38.6416 38.2069 38.64 39.9353 38.6683C40.8137 38.6816 41.3254 39.2083 41.337 40.0966C41.362 41.8033 41.3604 43.51 41.3387 45.2166C41.327 46.1416 40.8087 46.6433 39.8903 46.65C38.1835 46.665 36.4768 46.665 34.7684 46.65C33.8366 46.6416 33.3649 46.1483 33.3499 45.2033C33.3366 44.35 33.3466 43.4966 33.3466 42.6433ZM36.0351 41.365C36.0351 42.2666 36.0351 43.105 36.0351 43.9516C36.9235 43.9516 37.7768 43.9516 38.6119 43.9516C38.6119 43.0633 38.6119 42.225 38.6119 41.365C37.7385 41.365 36.9151 41.365 36.0351 41.365Z" fill="#007349"/>
<path d="M30.6549 53.3782C30.6549 54.2316 30.6699 55.0849 30.6499 55.9382C30.6299 56.7899 30.1465 57.3149 29.2915 57.3299C27.5431 57.3599 25.7946 57.3599 24.0462 57.3299C23.2012 57.3149 22.6828 56.7899 22.6695 55.9416C22.6428 54.1932 22.6395 52.4449 22.6712 50.6966C22.6862 49.8499 23.2195 49.3582 24.0729 49.3499C25.8013 49.3332 27.5281 49.3332 29.2565 49.3499C30.1549 49.3582 30.6332 49.8516 30.6516 50.7549C30.6699 51.6299 30.6566 52.5032 30.6549 53.3782ZM27.9581 54.6232C27.9581 53.7399 27.9581 52.8849 27.9581 52.0382C27.073 52.0382 26.233 52.0382 25.383 52.0382C25.383 52.9149 25.383 53.7532 25.383 54.6232C26.258 54.6232 27.0964 54.6232 27.9581 54.6232Z" fill="#007349"/>
<path d="M33.3468 53.2964C33.3468 52.4631 33.3368 51.6314 33.3501 50.7981C33.3651 49.8514 33.8351 49.3581 34.7652 49.3498C36.4719 49.3331 38.1787 49.3348 39.8854 49.3498C40.8055 49.3564 41.3255 49.8564 41.3372 50.7798C41.3605 52.4864 41.3605 54.1931 41.3355 55.8998C41.3222 56.8114 40.7938 57.3248 39.8738 57.3364C38.187 57.3581 36.5019 57.3564 34.8152 57.3364C33.8518 57.3248 33.3634 56.8164 33.3484 55.8564C33.3368 55.0031 33.3468 54.1498 33.3468 53.2964ZM38.627 52.0431C37.7437 52.0431 36.8886 52.0431 36.0402 52.0431C36.0402 52.9281 36.0402 53.7681 36.0402 54.6181C36.9169 54.6181 37.7553 54.6181 38.627 54.6181C38.627 53.7431 38.627 52.9048 38.627 52.0431Z" fill="#007349"/>
<path d="M30.6566 31.9482C30.6566 32.8232 30.6699 33.6982 30.6533 34.5715C30.6349 35.4915 30.1282 35.9899 29.2015 35.9965C27.5148 36.0082 25.828 36.0065 24.1413 35.9965C23.2279 35.9915 22.6812 35.4865 22.6678 34.5799C22.6428 32.8515 22.6412 31.1232 22.6695 29.3965C22.6829 28.5182 23.2262 28.0115 24.1029 28.0049C25.8097 27.9915 27.5181 27.9915 29.2249 28.0049C30.1399 28.0115 30.6383 28.5232 30.6549 29.4499C30.6683 30.2815 30.6566 31.1149 30.6566 31.9482ZM27.9698 30.7015C27.0714 30.7015 26.233 30.7015 25.383 30.7015C25.383 31.5899 25.383 32.4315 25.383 33.3082C26.2614 33.3082 27.0997 33.3082 27.9698 33.3082C27.9698 32.4299 27.9698 31.5882 27.9698 30.7015Z" fill="#007349"/>
<path d="M37.362 35.9999C36.5087 35.9999 35.6553 36.0099 34.8002 35.9966C33.8735 35.9833 33.3602 35.4899 33.3518 34.5683C33.3368 32.8616 33.3368 31.1533 33.3518 29.4466C33.3602 28.5183 33.8669 28.0099 34.7836 28.0033C36.4903 27.9916 38.1987 27.9899 39.9055 28.0033C40.7789 28.0099 41.3206 28.5166 41.3356 29.3983C41.3639 31.1266 41.3639 32.8549 41.3372 34.5816C41.3239 35.4883 40.7772 35.9833 39.8605 35.9966C39.0271 36.0083 38.1937 35.9999 37.362 35.9999ZM38.6088 33.3083C38.6088 32.4166 38.6088 31.5633 38.6088 30.7016C37.7187 30.7016 36.8787 30.7016 36.0353 30.7016C36.0353 31.5899 36.0353 32.4333 36.0353 33.3083C36.907 33.3083 37.7454 33.3083 38.6088 33.3083Z" fill="#007349"/>
<path d="M15.9592 46.6532C15.1058 46.6532 14.2508 46.6682 13.3974 46.6499C12.5173 46.6299 12.0106 46.1165 12.0023 45.2332C11.989 43.5265 11.9906 41.8182 12.0023 40.1115C12.009 39.2332 12.509 38.6832 13.384 38.6699C15.1325 38.6415 16.8826 38.6399 18.631 38.6715C19.4977 38.6865 19.9894 39.2449 19.996 40.1299C20.0077 41.8165 20.0077 43.5032 19.996 45.1899C19.9894 46.1449 19.486 46.6399 18.5193 46.6549C17.6676 46.6649 16.8126 46.6549 15.9592 46.6532ZM17.3126 41.3882C16.3975 41.3882 15.5575 41.3882 14.6958 41.3882C14.6958 42.2715 14.6958 43.1115 14.6958 43.9499C15.5925 43.9499 16.4492 43.9499 17.3126 43.9499C17.3126 43.0749 17.3126 42.2532 17.3126 41.3882Z" fill="#007349"/>
<path d="M16.024 49.3464C16.8774 49.3464 17.7324 49.3331 18.5858 49.3498C19.4709 49.3681 19.9875 49.8748 19.9959 50.7514C20.0109 52.4798 20.0109 54.2081 19.9942 55.9348C19.9859 56.7498 19.4992 57.3048 18.6925 57.3214C16.9024 57.3598 15.1106 57.3581 13.3205 57.3231C12.5088 57.3064 12.0138 56.7564 12.0071 55.9464C11.9905 54.1981 11.9905 52.4481 12.0071 50.6998C12.0155 49.8914 12.5338 49.3731 13.3389 49.3514C14.2339 49.3281 15.129 49.3464 16.024 49.3464ZM14.7039 52.0298C14.7039 52.9331 14.7039 53.7714 14.7039 54.6164C15.594 54.6164 16.4357 54.6164 17.3074 54.6164C17.3074 53.7364 17.3074 52.8981 17.3074 52.0298C16.4274 52.0298 15.584 52.0298 14.7039 52.0298Z" fill="#007349"/>
<path d="M15.9673 35.9999C15.1339 35.9999 14.3006 36.0099 13.4688 35.9982C12.5255 35.9849 12.0088 35.4665 12.0038 34.5132C11.9938 32.8265 11.9921 31.1399 12.0054 29.4532C12.0121 28.5399 12.5338 28.0115 13.4422 28.0049C15.1489 27.9915 16.8574 27.9915 18.5641 28.0049C19.4692 28.0115 19.9925 28.5415 19.9975 29.4549C20.0092 31.1415 20.0092 32.8282 19.9975 34.5149C19.9925 35.4632 19.4708 35.9849 18.5291 35.9965C17.6741 36.0082 16.8207 35.9999 15.9673 35.9999ZM17.2924 33.3065C17.2924 32.3882 17.2924 31.5465 17.2924 30.7015C16.399 30.7015 15.5589 30.7015 14.6956 30.7015C14.6956 31.5882 14.6956 32.4282 14.6956 33.3065C15.5773 33.3065 16.4173 33.3065 17.2924 33.3065Z" fill="#007349"/>
<path d="M47.941 35.9982C47.1076 35.9982 46.2742 36.0099 45.4425 35.9949C44.5375 35.9799 44.0141 35.4566 44.0075 34.5432C43.9958 32.8366 43.9941 31.1282 44.0091 29.4216C44.0158 28.5466 44.5425 28.0116 45.4109 28.0049C47.1393 27.9899 48.8677 27.9899 50.5961 28.0049C51.4645 28.0132 51.9929 28.5482 51.9995 29.4216C52.0145 31.1282 52.0129 32.8366 52.0012 34.5432C51.9945 35.4549 51.4695 35.9799 50.5661 35.9949C49.6911 36.0099 48.816 35.9982 47.941 35.9982ZM46.7009 30.6816C46.7009 31.5882 46.7009 32.4299 46.7009 33.2866C47.5976 33.2866 48.4544 33.2866 49.2977 33.2866C49.2977 32.3882 49.2977 31.5466 49.2977 30.6816C48.4194 30.6816 47.5926 30.6816 46.7009 30.6816Z" fill="#007349"/>
</svg>
