<svg width="389" height="207" viewBox="0 0 389 207" fill="none" xmlns="http://www.w3.org/2000/svg">
<path d="M66.8138 131.011C60.4849 125.428 56.9431 118.462 56.9328 109.82C56.9225 101.181 60.4363 94.2001 66.8123 88.6783C61.3894 90.4251 56.5107 93.1967 52.0571 96.802C47.5814 100.426 43.8278 104.73 40.7126 109.802C41.3363 110.743 41.957 111.677 42.5747 112.615C42.8027 112.961 43.0674 113.291 43.2307 113.669C43.5631 114.433 43.3072 115.328 42.6747 115.822C42.0526 116.309 41.1465 116.295 40.5244 115.781C40.3817 115.663 40.242 115.529 40.139 115.374C39.1551 113.9 38.1784 112.419 37.2033 110.938C36.6841 110.151 36.7576 109.384 37.2268 108.584C38.7609 105.969 40.467 103.482 42.4114 101.183C51.1334 90.8672 62.0174 84.501 75.1092 82.7741C93.4047 80.362 108.906 86.4283 121.521 100.416C123.662 102.792 125.452 105.452 127.153 108.185C127.873 109.345 127.816 110.313 127.113 111.454C118.838 124.9 107.222 133.413 92.1472 136.368C76.5638 139.422 62.4087 135.635 49.8023 125.625C49.4537 125.349 49.1007 125.06 48.8095 124.721C48.2153 124.03 48.2035 123.12 48.7301 122.412C49.2493 121.711 50.1171 121.486 50.9039 121.904C51.2584 122.092 51.5717 122.372 51.8879 122.632C56.1592 126.15 60.854 128.871 65.9916 130.763C66.2608 130.863 66.5402 130.932 66.8138 131.014V131.011ZM82.2912 87.06C70.1996 87.0707 60.4584 97.2501 60.4672 109.866C60.4746 122.34 70.2908 132.473 82.3662 132.472C94.3931 132.47 104.131 122.291 104.12 109.735C104.108 97.2058 94.3298 87.0493 82.2912 87.06ZM97.8289 88.689C104.158 94.2292 107.666 101.203 107.647 109.849C107.628 118.498 104.077 125.445 97.6921 130.935C103.021 129.238 107.83 126.548 112.225 123.047C116.869 119.348 120.778 114.949 123.917 109.758C117.503 99.5873 108.872 92.5558 97.8275 88.689H97.8289Z" fill="black"/>
<path d="M273.105 126.719C270.924 125.147 269.877 123.079 270.097 120.454C270.313 117.898 271.888 116.169 273.791 114.587C273.422 114.187 273.148 113.881 272.869 113.585C268.723 109.22 268.648 102.83 271.232 98.7167C273.327 95.3825 276.391 93.5886 280.173 93.1867C281.965 92.9959 283.749 93.1335 285.501 93.659C286.065 93.8279 286.675 93.8874 287.265 93.8936C289.769 93.9186 292.275 93.8936 294.78 93.9124C295.259 93.9155 295.756 93.964 296.211 94.1079C297.138 94.4034 297.689 95.2839 297.638 96.2457C297.586 97.2154 296.96 98.0677 296.017 98.2147C295.099 98.357 294.159 98.3445 293.228 98.3774C292.645 98.3993 292.063 98.3821 291.328 98.3821C291.503 98.7808 291.558 99.0045 291.683 99.1734C293.25 101.296 293.675 103.71 293.532 106.338C293.319 110.223 291.674 113.227 288.549 115.257C285.3 117.366 281.782 117.798 278.116 116.566C276.67 116.079 276.397 116.178 275.532 117.504C274.836 118.571 274.673 119.745 274.857 120.971C275.014 122.011 275.638 122.793 276.56 123.131C277.533 123.486 278.571 123.799 279.591 123.836C282.466 123.941 285.348 123.852 288.226 123.924C289.98 123.968 291.714 124.251 293.391 124.848C297.376 126.271 298.574 129.657 298.066 133.343C297.631 136.506 295.812 138.711 293.389 140.458C290.972 142.202 288.263 143.11 285.362 143.482C282.408 143.861 279.472 143.82 276.556 143.193C274.825 142.821 273.19 142.177 271.696 141.163C267.703 138.456 267 133.115 270.196 129.415C270.867 128.639 271.695 128.012 272.449 127.316C272.614 127.164 272.779 127.014 273.105 126.717V126.719ZM282.35 139.851C284.652 139.957 286.877 139.56 288.944 138.426C290.391 137.633 291.654 136.603 292.406 135.04C293.75 132.244 292.576 129.648 289.678 128.944C289.606 128.927 289.53 128.916 289.456 128.91C288.305 128.816 287.155 128.667 286.004 128.639C283.058 128.569 280.1 128.8 277.176 128.217C276.505 128.084 275.897 128.265 275.438 128.791C274.86 129.449 274.232 130.092 273.795 130.847C272.431 133.204 272.654 136.406 275.462 138.167C276.065 138.545 276.718 138.858 277.379 139.113C278.975 139.729 280.644 139.898 282.353 139.851H282.35ZM274.714 105.271C274.833 106.156 274.876 107.06 275.083 107.922C275.828 111.017 278.381 113.194 281.225 113.374C285.074 113.618 287.317 110.931 288.126 108.518C288.759 106.63 288.837 104.685 288.367 102.755C287.73 100.149 286.227 98.2726 283.709 97.5391C281.116 96.7822 278.743 97.328 276.798 99.372C275.253 100.997 274.726 103.024 274.713 105.273L274.714 105.271Z" fill="#007349"/>
<path d="M153.939 98.9359C154.454 98.3994 154.76 98.0827 155.065 97.7644C156.811 95.938 158.738 94.399 161.117 93.6088C163.416 92.8447 165.698 92.9631 167.93 93.8732C169.77 94.6235 171.077 96.0225 171.971 97.8674C172.181 98.301 172.411 98.7238 172.709 99.3018C173.15 98.9082 173.515 98.6238 173.835 98.2917C175.42 96.6406 177.121 95.16 179.148 94.1438C181.787 92.8201 184.477 92.8016 187.167 93.8855C189.244 94.7234 190.612 96.3715 191.489 98.5008C192.088 99.9552 192.433 101.486 192.566 103.055C192.702 104.657 192.765 106.271 192.772 107.879C192.797 113.178 192.784 118.478 192.776 123.776C192.776 124.232 192.757 124.7 192.667 125.144C192.348 126.746 191.31 127.532 189.754 127.398C188.511 127.29 187.578 126.211 187.485 124.755C187.46 124.372 187.469 123.988 187.469 123.604C187.469 117.958 187.496 112.314 187.449 106.669C187.437 105.299 187.289 103.906 187.011 102.569C186.246 98.876 183.502 97.5169 180.153 98.2595C178.884 98.5408 177.788 99.2234 176.764 100.023C176.094 100.546 175.506 101.181 174.85 101.726C173.793 102.606 173.445 103.722 173.458 105.144C173.514 111.211 173.482 117.277 173.482 123.345C173.482 123.73 173.457 124.116 173.482 124.497C173.601 126.303 172.196 127.456 170.826 127.441C169.454 127.426 168.253 126.054 168.27 124.477C168.333 118.91 168.328 113.341 168.274 107.773C168.258 106.094 168.064 104.411 167.84 102.746C167.698 101.682 167.284 100.679 166.585 99.8553C165.055 98.0504 163.093 97.8013 161.001 98.241C159.205 98.6192 157.76 99.7246 156.406 100.97C154.994 102.267 154.29 103.9 154.292 105.867C154.292 111.779 154.292 117.694 154.292 123.607C154.292 124.03 154.292 124.452 154.271 124.874C154.219 126.033 153.639 126.871 152.654 127.252C151.649 127.642 150.645 127.486 149.838 126.626C149.417 126.177 149.131 125.656 149.118 125.001C149.109 124.54 149.089 124.08 149.089 123.619C149.087 114.863 149.089 106.109 149.089 97.3539C149.089 96.9696 149.105 96.5868 149.1 96.2024C149.09 95.1923 149.58 94.4805 150.427 94.1669C151.277 93.8517 152.197 93.8947 152.834 94.685C153.192 95.1278 153.452 95.7166 153.591 96.2839C153.777 97.0449 153.803 97.8505 153.933 98.9359H153.939Z" fill="#007349"/>
<path d="M255.053 96.2128C255.079 95.9835 255.144 95.7339 255.13 95.4875C255.049 93.9338 254.888 92.3801 254.869 90.8264C254.828 87.4757 254.834 84.125 254.865 80.7743C254.882 78.879 256.162 77.6436 257.901 77.7434C259.256 77.8214 260.341 78.8884 260.451 80.2705C260.479 80.6199 260.476 80.9709 260.476 81.3219C260.476 95.6996 260.476 110.076 260.476 124.454C260.476 124.688 260.477 124.922 260.468 125.156C260.411 126.481 259.668 127.363 258.515 127.475C257.121 127.611 256.052 126.903 255.746 125.6C255.605 125.001 255.527 124.385 255.383 123.569C254.997 123.867 254.704 124.068 254.437 124.302C252.774 125.765 250.974 126.995 248.868 127.7C243.245 129.583 236.269 127.486 233.217 120.63C231.359 116.459 231.103 112.06 231.51 107.594C231.783 104.61 232.693 101.813 234.365 99.3124C235.945 96.9522 237.898 94.993 240.508 93.8605C244.784 92.0057 248.919 92.2787 252.835 94.9275C253.471 95.358 254.097 95.8041 254.733 96.2331C254.782 96.2659 254.877 96.2269 255.05 96.2128H255.053ZM254.857 110.01C254.857 107.401 254.828 104.791 254.872 102.183C254.888 101.265 254.575 100.645 253.852 100.119C252.632 99.2313 251.374 98.4295 249.936 97.9724C246.16 96.7728 242.729 97.6261 240.217 100.716C239.027 102.181 238.212 103.833 237.72 105.657C236.999 108.327 237.051 111.052 237.319 113.763C237.498 115.581 237.985 117.34 238.823 118.991C240.696 122.683 244.383 124.167 248.053 123.405C250.435 122.911 252.299 121.549 254.021 119.899C254.618 119.326 254.885 118.687 254.872 117.838C254.834 115.23 254.859 112.62 254.859 110.01H254.857Z" fill="#007349"/>
<path d="M316.42 112.02C313.827 112.02 311.233 112.013 308.639 112.023C307.131 112.027 306.943 112.268 307.2 113.791C307.499 115.581 307.968 117.309 308.913 118.863C310.762 121.905 313.436 123.545 316.87 123.835C319.203 124.032 321.437 123.588 323.558 122.547C323.758 122.449 323.957 122.345 324.163 122.261C325.365 121.766 326.419 122.108 326.923 123.152C327.454 124.252 327.097 125.484 325.911 126.034C324.464 126.704 322.981 127.34 321.454 127.753C318.238 128.623 314.997 128.594 311.841 127.41C307.305 125.708 304.19 122.449 302.705 117.711C301.056 112.449 301.224 107.188 303.441 102.093C305.337 97.7384 308.517 94.7934 312.967 93.6044C319.133 91.9548 325.812 94.2852 328.19 102.193C328.649 103.716 328.889 105.339 329.01 106.935C329.198 109.449 327.23 111.685 324.755 111.967C324.277 112.021 323.794 112.015 323.311 112.016C322.163 112.023 321.014 112.018 319.866 112.016C318.717 112.016 317.569 112.016 316.42 112.016V112.02ZM315.754 108.097C317.94 108.097 320.126 108.097 322.313 108.097C322.572 108.097 322.832 108.103 323.09 108.092C324.257 108.049 324.459 107.858 324.329 106.624C324.218 105.56 324.073 104.485 323.794 103.457C322.564 98.9352 319.042 96.7388 314.208 97.8647C311.384 98.5224 309.566 100.611 308.16 103.103C307.456 104.348 307.087 105.703 307.088 107.166C307.088 107.752 307.343 108.018 307.864 108.067C308.16 108.095 308.456 108.095 308.753 108.095C311.087 108.097 313.421 108.095 315.756 108.095L315.754 108.097Z" fill="#007349"/>
<path d="M214.167 121.865C214.38 121.225 214.609 120.589 214.805 119.941C217.103 112.31 219.402 104.679 221.688 97.0438C222.167 95.4462 223.089 94.3893 224.716 94.0805C226.338 93.7718 227.449 95.0422 226.931 96.7028C226.282 98.7767 225.573 100.831 224.883 102.891C221.738 112.287 218.601 121.686 215.441 131.078C214.646 133.441 213.524 135.63 212.081 137.642C209.699 140.96 206.457 142.149 202.62 141.88C201.397 141.794 200.68 141.063 200.556 139.899C200.439 138.787 201.053 137.81 202.157 137.473C202.603 137.336 203.094 137.28 203.56 137.3C205.418 137.379 206.907 136.601 208.156 135.232C209.373 133.898 210.093 132.267 210.673 130.557C211.313 128.671 211.281 126.813 210.578 124.982C207.052 115.814 203.521 106.65 200.001 97.4786C199.826 97.0239 199.667 96.5323 199.644 96.0499C199.582 94.7903 200.571 93.867 201.772 94.0268C203.443 94.248 204.63 95.1605 205.227 96.8288C206.2 99.5555 207.173 102.282 208.112 105.021C209.905 110.247 211.673 115.483 213.455 120.712C213.588 121.099 213.754 121.475 213.905 121.856C213.993 121.859 214.081 121.864 214.17 121.867L214.167 121.865Z" fill="#007349"/>
<path d="M81.7223 70.5246C95.9492 70.5262 108.937 74.5775 120.432 83.208C122.634 84.8608 124.621 86.8132 126.699 88.637C126.949 88.8562 127.185 89.1118 127.365 89.3931C127.849 90.1477 127.738 91.0732 127.13 91.6766C126.519 92.2815 125.602 92.3798 124.879 91.8823C124.605 91.6947 124.367 91.4452 124.13 91.2093C115.293 82.4503 104.704 77.1831 92.6158 75.0236C81.7624 73.0849 71.0949 73.9529 60.6785 77.6655C53.117 80.3604 46.3892 84.4828 40.4981 90.0116C40.2796 90.2158 40.0731 90.435 39.8397 90.621C39.006 91.2834 37.9806 91.2396 37.3267 90.5273C36.6728 89.8135 36.6668 88.7368 37.4054 87.9776C38.1872 87.1746 39.0209 86.417 39.8695 85.685C49.5443 77.3374 60.7379 72.5375 73.284 70.9178C74.5725 70.7515 75.8654 70.5957 77.1613 70.5398C78.6802 70.4747 80.202 70.5246 81.7238 70.5246H81.7223Z" fill="black"/>
<path d="M338.22 109.632C338.22 106.621 338.22 103.609 338.22 100.598C338.22 100.33 338.23 100.063 338.214 99.7978C338.161 99.0134 338.029 98.8684 337.276 98.8364C336.714 98.8135 336.151 98.8409 335.589 98.8257C334.287 98.789 333.445 98.0733 333.319 96.9149C333.195 95.7596 333.977 94.7279 335.234 94.499C335.856 94.3861 336.503 94.4136 337.138 94.3723C338.274 94.2991 338.394 94.1587 338.475 93.0171C338.612 91.0804 338.757 89.1453 338.922 87.2116C339.009 86.1937 339.761 85.3009 340.672 85.0567C341.672 84.7881 342.744 85.1452 343.217 86.0319C343.454 86.476 343.559 87.0392 343.574 87.5535C343.619 89.191 343.593 90.8317 343.596 92.4708C343.596 92.776 343.602 93.0812 343.611 93.3849C343.626 93.9862 343.949 94.293 344.524 94.3189C345.01 94.3418 345.498 94.3388 345.986 94.3403C347.373 94.3449 348.761 94.322 350.147 94.354C351.547 94.3861 352.508 95.3308 352.483 96.5853C352.458 97.8291 351.467 98.789 350.094 98.8196C348.482 98.8547 346.87 98.8287 345.258 98.8303C344.995 98.8303 344.733 98.844 344.471 98.8333C343.896 98.8089 343.662 99.1385 343.62 99.6651C343.599 99.9306 343.598 100.198 343.598 100.465C343.598 106.031 343.58 111.597 343.611 117.161C343.617 118.18 343.751 119.212 343.943 120.215C344.492 123.079 346.585 124.087 349.42 123.83C349.941 123.783 350.459 123.65 350.977 123.655C352.107 123.664 352.805 124.258 352.979 125.271C353.162 126.336 352.604 127.353 351.545 127.679C349.851 128.203 348.107 128.491 346.337 128.297C345.34 128.189 344.339 127.966 343.386 127.653C341.75 127.118 340.534 126.01 339.71 124.473C338.72 122.628 338.277 120.631 338.247 118.551C338.205 115.578 338.236 112.605 338.236 109.631C338.232 109.631 338.226 109.631 338.221 109.631L338.22 109.632Z" fill="#007349"/>
<path d="M84.4832 123.169C84.4565 123.716 84.461 124.328 84.387 124.927C84.2893 125.724 83.8482 126.268 83.0934 126.482C82.3741 126.687 81.6475 126.429 81.2523 125.768C81.0673 125.46 80.9918 125.061 80.9371 124.693C80.8645 124.206 80.8616 123.708 80.8201 123.095C80.3332 123.071 79.9055 123.043 79.4763 123.027C76.8463 122.933 74.5701 122.011 72.8 119.92C71.7625 118.695 71.1705 117.276 71.1646 115.621C71.1601 114.407 71.6974 113.687 72.6786 113.583C73.7161 113.472 74.5878 114.102 74.6041 115.318C74.6411 117.965 77.9637 119.901 80.7017 119.222C80.9637 118.283 81.0111 112.267 80.7447 110.859C80.1201 110.7 79.4511 110.512 78.7748 110.359C77.9445 110.171 77.1053 110.034 76.278 109.837C71.317 108.652 69.4463 102.534 72.8355 98.5697C74.499 96.6253 76.6169 95.687 79.0915 95.5529C79.6361 95.5237 80.1778 95.4666 80.7817 95.4173C80.8201 94.8812 80.8364 94.4266 80.8867 93.9767C81.0111 92.8612 81.717 92.1772 82.6968 92.2018C83.6114 92.2249 84.2686 92.9075 84.3929 93.9906C84.4447 94.4405 84.4536 94.895 84.4846 95.4127C85.0574 95.4851 85.5636 95.5468 86.0697 95.6145C88.787 95.9735 90.9641 97.2493 92.4352 99.7052C93.0154 100.673 93.2996 101.742 93.3366 102.875C93.3736 104.013 92.6721 104.919 91.7322 104.999C90.825 105.075 90.0436 104.364 89.8378 103.272C89.3702 100.79 88.1062 99.565 85.682 99.2461C84.6238 99.1059 84.4328 99.263 84.4269 100.366C84.4166 102.52 84.4166 104.676 84.4269 106.83C84.4314 107.816 84.4476 107.826 85.3786 108.047C86.2074 108.242 87.0554 108.36 87.8679 108.609C88.7115 108.868 89.5848 109.131 90.3351 109.589C93.8028 111.708 93.9271 115.875 92.6513 118.348C91.2054 121.149 88.8581 122.554 85.8729 122.898C85.5058 122.94 85.1373 122.967 84.7718 123.012C84.7037 123.02 84.6415 123.08 84.4817 123.168L84.4832 123.169ZM80.7683 99.2908C79.5577 99.1151 78.5039 99.1767 77.4812 99.5773C76.4171 99.9933 75.5025 100.614 74.9682 101.711C74.1705 103.344 74.7684 105.289 76.3934 105.968C77.7536 106.537 79.2247 106.692 80.7683 106.959V99.2923V99.2908ZM84.5808 111.57C84.2982 113.193 84.3633 118.407 84.6593 119.274C85.0707 119.251 85.5177 119.283 85.941 119.192C87.5216 118.854 88.8862 118.162 89.5566 116.499C90.2271 114.841 89.533 112.959 87.9597 112.404C86.8897 112.027 85.7545 111.851 84.5794 111.567L84.5808 111.57Z" fill="#00895B"/>
</svg>
